<?xml version="1.0" encoding="utf-8"?>
<!-- Generator: Adobe Illustrator 16.0.1, SVG Export Plug-In . SVG Version: 6.00 Build 0)  -->
<!DOCTYPE svg PUBLIC "-//W3C//DTD SVG 1.1//EN" "http://www.w3.org/Graphics/SVG/1.1/DTD/svg11.dtd">
<svg version="1.1" id="Layer_1" xmlns="http://www.w3.org/2000/svg" xmlns:xlink="http://www.w3.org/1999/xlink" x="0px" y="0px"
	 width="38.148px" height="24.937px" viewBox="0 0 38.148 24.937" enable-background="new 0 0 38.148 24.937" xml:space="preserve">
<path id="path5534" fill="#AAA231" d="M26.644,9.385h-7.865l-2.415-1.297v-3.66L31.835,3v4.776l-5.191,1.012V9.385L26.644,9.385z"/>
<path id="path5536" fill="#AAA231" d="M1.543,14.436L37,14.499l-0.006-6.594l-10.169,2.233H12.03L1.543,12.941
	C0.925,13.192,0.721,14.436,1.543,14.436z"/>
<path id="path1874" fill="#AAA231" d="M11.631,17.411c0,1.26-1.02,2.281-2.279,2.285c-1.259,0.003-2.283-1.014-2.29-2.272
	c-0.006-1.26,1.007-2.287,2.267-2.296c1.259-0.009,2.288,1.002,2.301,2.261"/>
<path id="path1876" fill="#AAA231" d="M16.772,17.411c0,1.26-1.019,2.281-2.278,2.285c-1.259,0.003-2.283-1.014-2.289-2.272
	c-0.006-1.26,1.007-2.287,2.267-2.296c1.259-0.009,2.289,1.002,2.301,2.261"/>
<path id="path1880" fill="#AAA231" d="M21.824,17.411c0,1.26-1.019,2.281-2.279,2.285c-1.259,0.003-2.284-1.014-2.29-2.272
	c-0.006-1.26,1.009-2.287,2.268-2.296c1.259-0.009,2.288,1.002,2.301,2.261"/>
<path id="path3511" fill="#AAA231" d="M26.994,17.411c0,1.26-1.019,2.281-2.278,2.285c-1.259,0.003-2.283-1.014-2.29-2.272
	c-0.007-1.26,1.007-2.287,2.267-2.296c1.259-0.009,2.289,1.002,2.301,2.261"/>
<path id="path1890" fill="#AAA231" d="M3.605,15.158l-1.064,0.048c-0.593,1.476-0.099,2.826,1.532,3.825
	c1.836,1.126,4.044,2.211,4.684,2.228l21.724,0.007c0.639-0.016,2.847-1.102,4.685-2.227c1.631-1,2.125-2.353,1.532-3.829
	l-1.065-0.045c0.32,1.381,0.597,2.312-1.4,3.258c-1.633,0.773-3.36,1.695-3.629,1.75L8.635,20.169
	c-0.27-0.055-1.993-0.98-3.626-1.753C3.013,17.47,3.286,16.538,3.605,15.158z M1.011,5.13v1.513l14.834,0.504v-2.04L1.011,5.13z"/>
<path id="path1884" fill="#AAA231" d="M32.125,17.531c0,1.259-1.019,2.281-2.278,2.284c-1.26,0.003-2.284-1.013-2.291-2.272
	c-0.006-1.259,1.009-2.287,2.268-2.295c1.259-0.01,2.289,1.001,2.301,2.261"/>
<path id="path1886" fill="#AAA231" d="M35.292,16.47c0,0.718-0.58,1.301-1.298,1.302c-0.717,0.002-1.302-0.578-1.305-1.295
	c-0.004-0.718,0.574-1.303,1.292-1.309c0.718-0.005,1.305,0.571,1.312,1.289"/>
<path id="path1888" fill="#AAA231" d="M6.531,16.47c0,0.718-0.582,1.301-1.299,1.302c-0.718,0.002-1.301-0.578-1.306-1.295
	c-0.003-0.718,0.575-1.303,1.292-1.309c0.718-0.005,1.305,0.571,1.312,1.289"/>
</svg>
