<?xml version="1.0" encoding="utf-8"?>
<!-- Generator: Adobe Illustrator 16.0.1, SVG Export Plug-In . SVG Version: 6.00 Build 0)  -->
<!DOCTYPE svg PUBLIC "-//W3C//DTD SVG 1.1//EN" "http://www.w3.org/Graphics/SVG/1.1/DTD/svg11.dtd">
<svg version="1.1" id="Layer_1" xmlns="http://www.w3.org/2000/svg" xmlns:xlink="http://www.w3.org/1999/xlink" x="0px" y="0px"
	 width="100px" height="65.367px" viewBox="0 0 100 65.367" enable-background="new 0 0 100 65.367" xml:space="preserve">
<g>
	<path id="path5534" fill="#AAA231" d="M70.098,20.203H48.906l-6.508-3.494V6.846L84.084,3v12.869l-13.985,2.727V20.203
		L70.098,20.203z"/>
	<path id="path5536" fill="#AAA231" d="M2.463,33.816l95.538,0.168l-0.016-17.768l-27.4,6.016H30.719L2.463,29.787
		C0.797,30.463,0.25,33.816,2.463,33.816z"/>
	<path id="path1874" fill="#AAA231" d="M29.644,41.83c0,3.396-2.747,6.147-6.14,6.157c-3.395,0.009-6.151-2.731-6.17-6.123
		c-0.016-3.395,2.713-6.162,6.107-6.186c3.392-0.024,6.165,2.7,6.199,6.095"/>
	<path id="path1876" fill="#AAA231" d="M43.498,41.83c0,3.396-2.747,6.147-6.139,6.157c-3.393,0.009-6.151-2.731-6.168-6.123
		c-0.016-3.395,2.714-6.162,6.11-6.186c3.392-0.024,6.165,2.7,6.199,6.095"/>
	<path id="path1880" fill="#AAA231" d="M57.109,41.83c0,3.396-2.743,6.147-6.141,6.157c-3.392,0.009-6.155-2.731-6.171-6.123
		c-0.016-3.395,2.721-6.162,6.113-6.186c3.391-0.024,6.165,2.7,6.198,6.095"/>
	<path id="path3511" fill="#AAA231" d="M71.04,41.83c0,3.396-2.743,6.147-6.139,6.157c-3.392,0.009-6.149-2.731-6.17-6.123
		c-0.019-3.395,2.716-6.162,6.11-6.186c3.391-0.024,6.167,2.7,6.198,6.095"/>
	<path id="path1890" fill="#AAA231" d="M8.02,35.76l-2.868,0.13c-1.597,3.978-0.266,7.615,4.129,10.306
		c4.947,3.034,10.896,5.958,12.62,6.003l58.537,0.021c1.72-0.045,7.67-2.972,12.622-6.003c4.395-2.694,5.726-6.338,4.128-10.317
		l-2.871-0.121c0.864,3.722,1.611,6.231-3.771,8.778c-4.399,2.084-9.054,4.567-9.777,4.715l-59.196-0.01
		c-0.728-0.147-5.369-2.64-9.771-4.724C6.425,41.989,7.159,39.478,8.02,35.76z M1.029,8.739v4.079l39.969,1.357V8.678L1.029,8.739z"
		/>
	<path id="path1884" fill="#AAA231" d="M84.865,42.154c0,3.392-2.744,6.146-6.136,6.154c-3.397,0.008-6.155-2.73-6.174-6.122
		c-0.018-3.393,2.719-6.163,6.11-6.185c3.392-0.026,6.168,2.697,6.199,6.092"/>
	<path id="path1886" fill="#AAA231" d="M93.398,39.294c0,1.938-1.562,3.507-3.496,3.51c-1.932,0.005-3.508-1.557-3.516-3.488
		c-0.012-1.938,1.547-3.514,3.48-3.529c1.935-0.014,3.516,1.539,3.534,3.474"/>
	<path id="path1888" fill="#AAA231" d="M15.904,39.294c0,1.938-1.568,3.507-3.5,3.51c-1.934,0.005-3.505-1.557-3.521-3.488
		c-0.008-1.938,1.55-3.514,3.481-3.529c1.937-0.014,3.518,1.539,3.537,3.474"/>
</g>
</svg>
