<?xml version="1.0" encoding="utf-8"?>
<!-- Generator: Adobe Illustrator 16.0.1, SVG Export Plug-In . SVG Version: 6.00 Build 0)  -->
<!DOCTYPE svg PUBLIC "-//W3C//DTD SVG 1.1//EN" "http://www.w3.org/Graphics/SVG/1.1/DTD/svg11.dtd">
<svg version="1.1" id="Layer_1" xmlns="http://www.w3.org/2000/svg" xmlns:xlink="http://www.w3.org/1999/xlink" x="0px" y="0px"
	 width="25px" height="25px" viewBox="0 0 25 25" enable-background="new 0 0 25 25" xml:space="preserve">
<g>
	<polygon fill="#1072B6" points="13.046,11.794 13.012,11.771 12.95,11.775 12.965,11.797 	"/>
	<polygon fill="#1072B6" points="14.541,11.482 14.525,11.462 14.561,11.465 14.562,11.438 14.498,11.468 14.516,11.47 	"/>
	<polygon fill="#1072B6" points="18.236,21.329 18.165,21.32 18.227,21.344 	"/>
	<polygon fill="#1072B6" points="10.116,16.445 10.069,16.469 10.115,16.462 	"/>
	<path fill="#1072B6" d="M12.5,0C5.607,0,0,5.607,0,12.5C0,19.391,5.607,25,12.5,25C19.391,25,25,19.391,25,12.5
		C25,5.607,19.391,0,12.5,0z M18.896,20.589c-0.007,0.117-0.043,0.272-0.043,0.381c-0.021-0.074-0.009-0.059-0.016-0.129
		c-0.047,0.122-0.126,0.212-0.186,0.359c0.003-0.042-0.016-0.062-0.057-0.06c0.002,0.03,0.068,0.06-0.019,0.105
		c0.014,0.016-0.04-0.109-0.052-0.133c-0.006,0.138,0.017,0.082-0.014,0.22c-0.013-0.017-0.076-0.062-0.057-0.067
		c0.03,0.096-0.003,0.084-0.038,0.117l0,0l0,0c-0.067,0.024-0.083,0.065-0.256,0.03c-0.034-0.114,0.031-0.038-0.011-0.147
		c-0.034-0.029-0.125-0.199-0.18-0.402c0.015,0.018,0.077,0.135,0.077,0.135c-0.069-0.194-0.181-0.434-0.155-0.73
		c0.174,0.068,0.318,0.144,0.514,0.27c0.104-0.059-0.068-0.048,0.091-0.002C18.578,20.414,18.841,20.301,18.896,20.589z
		 M19.488,19.064c0.036,0.254-0.331,0.339-0.67,0.24c0.08,0.016-0.06,0.074-0.062,0.076c0.05-0.017,0.099-0.032,0.148-0.049
		c-0.193,0.107-0.312,0.185-0.508,0.247c0.054,0.116-0.009,0.034,0.041,0.16c-0.105-0.166-0.115-0.124-0.274-0.239
		c-0.029-0.012,0.144-0.102-0.026-0.122c-0.12,0.05-0.025,0.016-0.171,0.01c0.045-0.061,0.053-0.054,0.097-0.157
		c-0.05,0.048-0.105,0.076-0.17,0.078c0.023,0.037,0.056,0.043,0.097,0.018c-0.776,0.854-1.271-0.688-1.421-0.948
		c0.017,0.032,0.032,0.064,0.049,0.097c-0.027-0.08-0.109-0.158-0.174-0.209c0.042,0.037,0.083,0.075,0.125,0.112
		c-0.143-0.022-0.175-0.106-0.352-0.114c0.098-0.108,0.063-0.171,0.135-0.283c0.025,0.104-0.069-0.193-0.086-0.229
		c-0.096,0.354-0.126,0.26-0.384,0.362c0.204-0.135,0.457-0.625,0.347-0.946c-0.085,0.334-0.564,0.574-0.565,0.734
		c-0.008,0.032-0.017,0.065-0.024,0.098c-0.098-0.063-0.163-0.173-0.188-0.22c0.027,0.019,0.021,0.097,0.075,0.073
		c-0.006-0.046-0.029-0.013-0.035-0.012c-0.03-0.395-0.259-0.508-0.303-0.671c-0.007,0.033,0.054,0,0.059-0.003
		c-0.029-0.051-0.127-0.082-0.119-0.068c-0.185-0.627-1.982-0.372-2.707-0.084c-0.245,0.098-0.144,0.256-0.422,0.251
		c-0.199-0.003-0.353-0.077-0.63-0.053c-0.319,0.028-0.547,0.232-0.75,0.29c-0.062,0.057,0.009,0.039,0.002,0.064
		c-0.276,0.015-0.586-0.163-0.794-0.324c0.015-0.084-0.019-0.202-0.007-0.296c0.532-0.049,0.016-2.08-0.295-2.47
		c0.039,0.05,0.055,0.036,0.049-0.043c0.014,0.056-0.009,0.073,0.016,0.123c0-0.04,0.001-0.081,0.002-0.121
		c0.058,0.188,0.025,0.047,0.045,0.207c0.013-0.076,0.019-0.073,0.017,0.01c-0.011-0.092,0.003-0.3-0.01-0.375
		c0.021,0.078,0.025,0.154,0.043,0.223c0.043-0.01,0.061-0.036,0.052-0.077c0.013,0.02,0.029,0.153,0.038,0.181
		c0.179-0.425-0.22-0.945,0.169-1.453c-0.022,0.107-0.045,0.144-0.047,0.211c0.033-0.034,0.054-0.032,0.062,0.006
		c0.087-0.246,0.535-0.384,0.771-0.543c0.097,0.081,0.725,0.008,0.948-0.094c0.663-0.302,0.493-0.786,0.881-0.994
		c0.01,0.097,0.083,0.207,0.118,0.357c0.031-0.031,0.021-0.15,0.015-0.146c0.005,0.001,0.116,0.076,0.099,0.084
		c-0.042-0.127-0.017-0.044,0.009-0.143c-0.037-0.022-0.09-0.059-0.126-0.091c0.029-0.046,0.023,0.004,0.084-0.022
		c-0.007-0.019-0.042-0.022-0.035-0.078c0.02,0.026,0.022,0.026,0.009,0.001c0.023,0.02,0.032,0.017,0.028-0.009
		c0.038,0.047,0.013,0.02,0.082,0.082c-0.043-0.034,0.049-0.038-0.019-0.056c0.044,0.025,0.099,0.112,0.08,0.091
		c0.076-0.059-0.02,0.014,0.073-0.113c0.049,0.008,0.048,0.014,0.082-0.091c-0.041-0.017-0.052,0.067-0.06,0.068
		c0.001-0.011-0.002-0.009-0.011,0.007c0.08-0.219,0.005-0.157,0.228-0.104c-0.076-0.078-0.03-0.113-0.044-0.134
		c-0.154-0.054,0.027,0.059-0.062-0.005c0.053,0.017,0.069,0.003,0.05-0.041c0.058,0.028,0.06,0.038,0.139,0.066
		c-0.056-0.012-0.056-0.03-0.003-0.055c-0.033-0.048-0.054,0.004-0.09-0.08c0.02-0.016,0.078-0.03,0.077-0.065
		c-0.039,0.017,0.078-0.043,0.104-0.056c0.012,0.081-0.13-0.084-0.038,0.106c0.051-0.039,0.048-0.099,0.078,0.015
		c0.008-0.067,0.027-0.141,0.036-0.198c0.006,0.025,0.009,0.025,0.008,0.001c0.019,0.018,0.037,0.016,0.054-0.004
		c0.007,0.01-0.033,0.04,0,0.084c0.017-0.011,0.04-0.093,0.088-0.083c-0.053-0.01,0.023,0.098,0.02,0.093
		c0.028-0.076,0.021-0.047,0.098-0.063c-0.031-0.011-0.048-0.034-0.049-0.068c0.028,0.021,0.04,0.02,0.036-0.006
		c0.19,0.088,0.418,0.29,0.275,0.547c0.036-0.019,0.048-0.051,0.034-0.096c0.039,0.013,0.048,0.081,0.064,0.098
		c-0.012-0.065-0.032-0.099-0.012-0.156c-0.049,0.058,0.071,0.012,0.062,0.025c-0.031-0.064-0.028-0.064,0.008,0.001
		c0.002-0.031-0.011-0.055-0.039-0.071c0.197,0.094,0.135,0.009,0.201,0.158c0.021-0.047,0.027-0.05,0.021-0.008
		c0.06-0.052-0.012-0.042,0.019-0.091c0.034,0.012,0.017,0,0.02-0.019c0.044,0.016,0.02,0.08,0.099,0.084
		c0.012-0.06-0.019-0.084,0.046-0.106c-0.054-0.035-0.023,0.023,0.01-0.064c-0.209-0.075-0.011-0.247,0.164-0.33
		c0.034-0.209-0.032-0.148,0.105-0.164c-0.005-0.021,0.004-0.026,0.025-0.015c-0.026-0.097-0.07,0.042-0.033-0.095
		c0.072,0.029,0.043,0.033,0.072,0.08c0.002-0.035,0.002-0.044,0.041-0.033c0.017-0.103,0.013-0.032,0.102-0.14
		c0.175,0.107,0.267,0.086,0.406,0.069c0.01-0.068-0.077-0.072,0.008-0.156c-0.036-0.019-0.146-0.094-0.259-0.108
		c0.021-0.009,0.024-0.021,0.012-0.037c0.039,0.027,0.055,0.019,0.046-0.024c0.038,0.019,0.053,0.051,0.046,0.096
		c0,0,0.021-0.1-0.002-0.093c0.161,0.095-0.046,0.021,0.062,0.007c0.15,0.187,0.357,0.205,0.471,0.358
		c0.131,0.017,0.131,0.007,0.3,0.061c0.019-0.013,0.091-0.026,0.208-0.088c-0.007,0.058-0.115,0.036-0.057,0.097
		c0.01-0.039,0.039-0.058,0.089-0.055c-0.003,0.062-0.012,0.072-0.022,0.126c0.05-0.088,0.09-0.064,0.168-0.167
		c0.028,0.077-0.014,0.085,0.055,0.085c-0.02,0.139-0.018,0.13-0.106,0.187c-0.018,0.101,0.057,0.03-0.051,0.15
		c0.027-0.019,0.029-0.042,0.007-0.071c-0.126,0.034-0.118,0.084-0.083,0.162c-0.465,0.426,0.256,0.833,0.683,1.009
		c0.358,0.148,0.308,0.469,0.666,0.017c0.193-0.244,0.158-0.733,0.241-0.961c0.033-0.098-0.04-0.11,0.063-0.132
		c-0.02-0.032-0.015-0.05,0.015-0.054c-0.061-0.019-0.06-0.03,0.003-0.036c-0.093-0.065-0.051-0.023-0.103-0.021
		c0.049-0.038,0.081-0.121,0.097-0.164c0.049,0.075-0.026,0.048,0.055,0.014c0.009-0.092,0.069-0.209,0.17-0.367
		c0.004,0.008,0.009,0.014,0.017,0.018c0.004,0.016,0.104,0.266,0.143,0.369c0.008,0.143-0.04,0.856,0.3,0.672
		c0.302,0.315,0.203,1.666,0.672,1.606c0,0.001,0.057,0.21,0.01,0.101c0.14,0.073,0.256,0.133,0.379,0.314
		c0.004-0.002-0.059-0.054-0.076-0.034c0.092,0.216,0.235,0.416,0.203,0.681c0.138-0.11,0.015-0.005,0.128,0.033
		c0.007-0.013-0.011-0.123,0.005-0.166c0.057,0.045,0.079,0.133,0.152,0.18c-0.022-0.052-0.02-0.065,0.008-0.041
		c-0.028-0.025-0.032-0.049-0.01-0.072c0.034,0.057,0.031,0.014,0.025,0.012c-0.026,0.178,0.062,0.596,0.264,0.549
		c0.123,0.333,0.292,0.398,0.279,0.646c-0.015-0.045,0.032,0.275,0.034,0.352c-0.011-0.021-0.023-0.041-0.04-0.059
		c0.071,0.783-0.242,1.72-0.721,2.127c0.011,0.151-0.047,0.243-0.21,0.444c0.032,0.042,0.057-0.01,0.058,0.079
		C19.66,18.461,19.534,18.788,19.488,19.064z M12.5,3.645c-4.883,0-8.854,3.972-8.854,8.854s3.972,8.856,8.854,8.856
		c1.622,0,3.145-0.441,4.451-1.209c0.048,0.011,0.093,0.016,0.14,0.017l0,0c-0.032,0.108-0.042,0.223-0.026,0.337l0.021,0.157
		c0.008,0.056,0.021,0.11,0.04,0.163c-1.371,0.766-2.948,1.203-4.626,1.203c-5.252,0-9.525-4.273-9.525-9.525
		S7.248,2.974,12.5,2.974s9.525,4.273,9.525,9.525c0,1.043-0.17,2.045-0.481,2.983c0.008-0.121-0.011-0.239-0.058-0.352
		c-0.008-0.035-0.019-0.068-0.027-0.104c-0.029-0.113-0.086-0.217-0.156-0.309c-0.031-0.057-0.066-0.113-0.109-0.162
		c-0.01-0.015-0.021-0.026-0.031-0.039c-0.004-0.011-0.01-0.02-0.014-0.026c-0.004-0.011-0.01-0.021-0.014-0.03
		c0.145-0.631,0.223-1.288,0.223-1.963C21.355,7.617,17.383,3.645,12.5,3.645z M19.609,11.623c-0.032-0.085-0.079-0.163-0.135-0.23
		c-0.014-0.017-0.024-0.031-0.039-0.047c-0.551-3.329-3.449-5.878-6.937-5.878c-3.877,0-7.032,3.155-7.032,7.032
		c0,3.878,3.155,7.032,7.032,7.032c1.086,0,2.115-0.247,3.034-0.688c0.062,0.029,0.127,0.053,0.195,0.066
		c0.031,0.021,0.065,0.044,0.102,0.064c0.014,0.1,0.047,0.199,0.1,0.293l0.057,0.099c-1.047,0.534-2.23,0.839-3.486,0.839
		c-4.248,0-7.703-3.456-7.703-7.704S8.252,4.798,12.5,4.798s7.704,3.455,7.704,7.703c0,0.15-0.007,0.299-0.015,0.446
		c-0.062-0.062-0.135-0.113-0.215-0.154c-0.048-0.068-0.104-0.128-0.172-0.178c-0.002-0.016-0.005-0.028-0.007-0.044
		c-0.003-0.041-0.012-0.08-0.021-0.12c-0.008-0.136-0.051-0.269-0.125-0.384c0-0.015,0.002-0.027,0.002-0.041
		C19.674,11.891,19.658,11.753,19.609,11.623z M12.5,9.111c-1.868,0-3.389,1.521-3.389,3.389c0,0.121,0.008,0.239,0.02,0.357
		l-0.075,0.142c-0.064,0.128-0.096,0.265-0.091,0.405c-0.036,0.068-0.062,0.141-0.077,0.217L8.855,13.78
		c-0.018,0.087-0.021,0.175-0.008,0.26c-0.022,0.033-0.041,0.067-0.057,0.103c-0.225-0.502-0.349-1.059-0.349-1.644
		c0-2.237,1.82-4.059,4.058-4.059c1.128,0,2.149,0.463,2.885,1.207c-0.007,0-0.014-0.001-0.022-0.002
		c-0.018-0.001-0.034-0.003-0.055-0.004c-0.031-0.003-0.062-0.005-0.096-0.005c-0.098,0-0.195,0.019-0.29,0.055
		c-0.034,0.013-0.067,0.028-0.098,0.046c-0.071,0.032-0.138,0.076-0.197,0.129C14.045,9.395,13.305,9.111,12.5,9.111z
		 M13.178,10.369c-0.044,0.018-0.085,0.035-0.123,0.058c-0.021,0.009-0.039,0.018-0.058,0.025c-0.107,0.053-0.2,0.126-0.271,0.215
		l-0.019,0.016c-0.066,0.051-0.125,0.113-0.174,0.183c-0.031,0.021-0.06,0.046-0.087,0.072c-0.664,0.022-1.224,0.459-1.427,1.06
		c-0.01,0.004-0.018,0.006-0.025,0.011c-0.042,0.005-0.083,0.015-0.123,0.026c-0.021-0.005-0.043-0.007-0.063-0.009l-0.019-0.001
		c-0.024-0.002-0.051-0.003-0.076-0.003c-0.142,0-0.279,0.036-0.401,0.105c-0.005,0.002-0.01,0.003-0.014,0.005
		c0.177-1.058,1.096-1.868,2.202-1.868C12.736,10.263,12.964,10.302,13.178,10.369z M12.5,7.289c-2.873,0-5.211,2.338-5.211,5.211
		c0,1.604,0.727,3.034,1.865,3.99c-0.076,0.113-0.126,0.244-0.139,0.386l-0.018,0.19C8.994,17.119,8.995,17.17,9,17.221
		c-1.443-1.07-2.381-2.787-2.381-4.722c0-3.242,2.641-5.882,5.882-5.882c2.306,0,4.304,1.334,5.269,3.269
		c-0.051,0.027-0.1,0.059-0.144,0.096c-0.164,0.105-0.285,0.271-0.338,0.459C16.486,8.591,14.643,7.289,12.5,7.289z M11.119,18.215
		c0.013-0.007,0.026-0.016,0.04-0.021c0.051-0.012,0.101-0.028,0.149-0.051c0.015-0.006,0.029-0.013,0.043-0.021
		c0.022-0.009,0.046-0.021,0.066-0.031c0.028-0.015,0.056-0.026,0.081-0.044c0.072,0.027,0.148,0.048,0.229,0.055l0.044,0.006
		c0.024,0.002,0.049,0.002,0.074,0.002c0.016,0,0.03,0,0.046,0c0.063,0.014,0.13,0.023,0.193,0.023c0.062,0,0.125-0.01,0.187-0.023
		c0.16-0.016,0.316-0.079,0.446-0.188l0.136-0.115c0.042-0.033,0.081-0.074,0.113-0.117c0.126-0.012,0.25-0.026,0.374-0.045
		c0.038-0.004,0.074-0.009,0.111-0.018l0.296-0.064c0.019-0.002,0.035-0.01,0.053-0.014c0.066-0.02,0.136-0.038,0.201-0.06h0.069
		l0.074,0.016c0.006,0.001,0.016,0.003,0.023,0.004c0.093,0.075,0.205,0.132,0.321,0.16c0.021,0.038,0.047,0.076,0.075,0.112
		l0.047,0.057c0,0.049,0.006,0.096,0.014,0.143c-0.659,0.259-1.375,0.401-2.127,0.401C12.024,18.382,11.562,18.324,11.119,18.215z
		 M19.55,21.385c0.104-0.162,0.148-0.354,0.125-0.543l0.001-0.009c0.002-0.015,0.004-0.033,0.006-0.05
		c0.014-0.055,0.021-0.111,0.021-0.17c0.015-0.079,0.015-0.159,0-0.239c2.133-1.953,3.473-4.76,3.473-7.875
		c0-5.888-4.789-10.678-10.677-10.678C6.611,1.821,1.822,6.612,1.822,12.5S6.612,23.177,12.5,23.177
		c1.818,0,3.534-0.454,5.034-1.262c0.067,0.084,0.151,0.153,0.248,0.207c0.091,0.049,0.188,0.077,0.286,0.091
		c0.066,0.023,0.137,0.042,0.207,0.047h0.006c-1.695,1.008-3.672,1.588-5.782,1.588c-6.258,0-11.348-5.093-11.348-11.35
		C1.151,6.24,6.242,1.152,12.5,1.152c6.257,0,11.35,5.09,11.35,11.348C23.848,16.095,22.167,19.305,19.55,21.385z"/>
	<polygon fill="#1072B6" points="13.109,11.799 13.062,11.805 13.048,11.796 13.062,11.814 	"/>
</g>
</svg>
