<?xml version="1.0" encoding="utf-8"?>
<!-- Generator: Adobe Illustrator 16.0.1, SVG Export Plug-In . SVG Version: 6.00 Build 0)  -->
<!DOCTYPE svg PUBLIC "-//W3C//DTD SVG 1.1//EN" "http://www.w3.org/Graphics/SVG/1.1/DTD/svg11.dtd">
<svg version="1.1" id="Layer_1" xmlns="http://www.w3.org/2000/svg" xmlns:xlink="http://www.w3.org/1999/xlink" x="0px" y="0px"
	 width="100px" height="100px" viewBox="0 0 100 100" enable-background="new 0 0 100 100" xml:space="preserve">
<g>
	<polygon fill="#1072B6" points="52.184,47.176 52.047,47.084 51.801,47.1 51.859,47.188 	"/>
	<polygon fill="#1072B6" points="58.164,45.928 58.102,45.848 58.242,45.859 58.25,45.752 57.992,45.871 58.062,45.879 	"/>
	<polygon fill="#1072B6" points="72.945,85.316 72.66,85.281 72.906,85.375 	"/>
	<polygon fill="#1072B6" points="40.465,65.781 40.275,65.875 40.461,65.848 	"/>
	<path fill="#1072B6" d="M50,0C22.428,0,0,22.428,0,50c0,27.562,22.428,50,50,50c27.562,0,50-22.438,50-50C100,22.428,77.562,0,50,0
		z M75.586,82.355c-0.031,0.469-0.172,1.09-0.172,1.523c-0.086-0.293-0.039-0.234-0.066-0.516c-0.188,0.488-0.504,0.848-0.746,1.438
		c0.016-0.168-0.062-0.25-0.227-0.238c0.008,0.117,0.273,0.238-0.074,0.418c0.055,0.062-0.16-0.438-0.207-0.531
		C74.07,85,74.16,84.773,74.035,85.328c-0.051-0.07-0.301-0.25-0.227-0.266c0.121,0.383-0.012,0.336-0.152,0.465l0,0l0,0
		c-0.266,0.098-0.332,0.262-1.023,0.121c-0.137-0.457,0.125-0.152-0.047-0.586c-0.133-0.117-0.5-0.797-0.719-1.609
		c0.062,0.07,0.309,0.539,0.309,0.539c-0.277-0.777-0.723-1.734-0.621-2.922c0.695,0.273,1.273,0.578,2.055,1.082
		c0.418-0.238-0.27-0.191,0.367-0.008C74.312,81.656,75.363,81.203,75.586,82.355z M77.953,76.258
		c0.141,1.016-1.324,1.352-2.68,0.957c0.32,0.066-0.242,0.297-0.25,0.305c0.203-0.066,0.398-0.129,0.594-0.195
		c-0.773,0.426-1.25,0.738-2.031,0.988c0.215,0.461-0.039,0.137,0.164,0.641c-0.422-0.664-0.461-0.496-1.098-0.957
		c-0.117-0.047,0.574-0.41-0.105-0.488c-0.477,0.199-0.102,0.062-0.684,0.039c0.18-0.242,0.215-0.215,0.387-0.625
		c-0.195,0.188-0.418,0.305-0.68,0.312c0.094,0.145,0.227,0.172,0.391,0.07c-3.105,3.414-5.086-2.754-5.688-3.793
		c0.07,0.129,0.133,0.254,0.199,0.387c-0.109-0.32-0.438-0.633-0.699-0.836c0.172,0.148,0.336,0.301,0.5,0.449
		c-0.57-0.09-0.695-0.426-1.406-0.457c0.391-0.43,0.254-0.684,0.539-1.133c0.102,0.418-0.273-0.77-0.344-0.914
		c-0.383,1.414-0.5,1.039-1.535,1.449c0.816-0.543,1.828-2.5,1.387-3.785c-0.336,1.336-2.254,2.297-2.258,2.938
		c-0.031,0.125-0.07,0.258-0.094,0.391c-0.395-0.25-0.656-0.691-0.754-0.879c0.105,0.074,0.082,0.387,0.301,0.293
		c-0.023-0.188-0.117-0.055-0.141-0.051c-0.121-1.578-1.039-2.031-1.211-2.684c-0.031,0.133,0.215,0,0.234-0.012
		c-0.117-0.203-0.508-0.328-0.477-0.27c-0.742-2.508-7.93-1.492-10.828-0.336c-0.98,0.391-0.576,1.023-1.688,1
		c-0.797-0.012-1.412-0.305-2.52-0.211c-1.277,0.113-2.188,0.93-3,1.16c-0.248,0.23,0.035,0.156,0.008,0.254
		c-1.104,0.062-2.344-0.648-3.176-1.293c0.059-0.336-0.076-0.809-0.029-1.184c2.129-0.195,0.064-8.32-1.18-9.883
		c0.156,0.203,0.221,0.145,0.197-0.172c0.055,0.227-0.037,0.293,0.062,0.492c0-0.156,0.004-0.32,0.008-0.484
		c0.232,0.754,0.102,0.188,0.182,0.828c0.051-0.305,0.076-0.289,0.068,0.039c-0.045-0.367,0.012-1.195-0.041-1.5
		c0.084,0.312,0.1,0.617,0.172,0.895c0.172-0.039,0.244-0.145,0.209-0.309c0.051,0.078,0.115,0.613,0.15,0.727
		c0.717-1.703-0.879-3.781,0.678-5.812c-0.09,0.426-0.182,0.574-0.189,0.844c0.133-0.137,0.217-0.129,0.248,0.023
		c0.348-0.984,2.141-1.537,3.084-2.172c0.389,0.324,2.9,0.031,3.793-0.377c2.65-1.207,1.971-3.143,3.523-3.975
		c0.041,0.387,0.332,0.826,0.473,1.426c0.123-0.123,0.084-0.6,0.059-0.582c0.021,0.004,0.465,0.303,0.396,0.336
		c-0.168-0.508-0.068-0.176,0.035-0.572c-0.146-0.088-0.359-0.236-0.504-0.365c0.117-0.184,0.094,0.016,0.336-0.088
		c-0.027-0.076-0.168-0.088-0.139-0.311c0.08,0.104,0.088,0.104,0.035,0.004c0.092,0.078,0.129,0.066,0.113-0.037
		c0.15,0.189,0.051,0.08,0.328,0.328c-0.174-0.135,0.195-0.152-0.076-0.225c0.176,0.102,0.395,0.449,0.32,0.365
		c0.303-0.236-0.082,0.057,0.291-0.453c0.193,0.033,0.193,0.057,0.326-0.363c-0.164-0.068-0.207,0.268-0.238,0.271
		c0.004-0.043-0.008-0.035-0.043,0.027c0.32-0.875,0.02-0.627,0.91-0.414c-0.301-0.312-0.121-0.453-0.176-0.537
		c-0.617-0.217,0.109,0.236-0.25-0.02c0.215,0.068,0.281,0.012,0.203-0.164c0.23,0.111,0.242,0.152,0.555,0.264
		c-0.223-0.047-0.223-0.119-0.012-0.219c-0.129-0.193-0.215,0.016-0.359-0.32c0.082-0.064,0.312-0.121,0.309-0.262
		c-0.156,0.068,0.312-0.172,0.414-0.223c0.047,0.324-0.52-0.336-0.148,0.424c0.203-0.156,0.188-0.396,0.312,0.061
		c0.031-0.27,0.105-0.564,0.141-0.793c0.023,0.1,0.039,0.1,0.031,0.004c0.078,0.072,0.148,0.064,0.219-0.016
		c0.027,0.039-0.133,0.16,0,0.336c0.066-0.043,0.156-0.371,0.352-0.332c-0.211-0.039,0.094,0.393,0.078,0.371
		c0.113-0.303,0.086-0.188,0.391-0.25c-0.121-0.045-0.188-0.137-0.195-0.273c0.113,0.084,0.164,0.08,0.148-0.023
		c0.758,0.352,1.672,1.16,1.098,2.188c0.145-0.076,0.191-0.203,0.137-0.383c0.156,0.051,0.191,0.324,0.254,0.391
		c-0.047-0.26-0.129-0.395-0.047-0.623c-0.195,0.232,0.285,0.049,0.246,0.1c-0.125-0.256-0.109-0.256,0.031,0.004
		c0.008-0.125-0.039-0.219-0.156-0.283c0.789,0.375,0.543,0.035,0.805,0.631c0.086-0.188,0.109-0.199,0.086-0.031
		c0.242-0.209-0.047-0.168,0.078-0.363c0.133,0.047,0.066,0,0.078-0.078c0.176,0.064,0.078,0.32,0.398,0.336
		c0.047-0.238-0.078-0.336,0.18-0.422c-0.215-0.141-0.09,0.09,0.039-0.258c-0.836-0.299-0.039-0.988,0.656-1.32
		c0.141-0.836-0.125-0.59,0.422-0.654c-0.02-0.084,0.016-0.104,0.102-0.061c-0.105-0.389-0.281,0.168-0.133-0.379
		c0.289,0.115,0.172,0.131,0.289,0.318c0.008-0.139,0.008-0.176,0.164-0.131c0.066-0.412,0.051-0.129,0.406-0.561
		c0.703,0.428,1.07,0.344,1.625,0.275c0.039-0.271-0.309-0.287,0.031-0.623c-0.145-0.076-0.586-0.377-1.035-0.432
		c0.082-0.037,0.098-0.086,0.047-0.148c0.156,0.107,0.223,0.076,0.184-0.096c0.152,0.076,0.211,0.203,0.188,0.383
		c0,0,0.082-0.4-0.012-0.371c0.645,0.381-0.184,0.084,0.25,0.027c0.598,0.748,1.426,0.82,1.883,1.432
		c0.523,0.068,0.523,0.029,1.199,0.244c0.078-0.051,0.367-0.104,0.832-0.352c-0.027,0.232-0.457,0.145-0.227,0.389
		c0.039-0.156,0.156-0.232,0.355-0.221c-0.012,0.248-0.047,0.287-0.086,0.504c0.195-0.352,0.359-0.256,0.672-0.668
		c0.109,0.309-0.059,0.34,0.219,0.34c-0.078,0.557-0.07,0.521-0.422,0.748c-0.074,0.404,0.227,0.121-0.207,0.6
		c0.109-0.076,0.117-0.168,0.027-0.283c-0.504,0.137-0.469,0.336-0.332,0.648c-1.859,1.703,1.027,3.332,2.73,4.035
		c1.434,0.592,1.234,1.877,2.664,0.068c0.773-0.977,0.633-2.932,0.969-3.844c0.129-0.393-0.164-0.439,0.25-0.529
		c-0.078-0.127-0.062-0.199,0.059-0.215c-0.242-0.076-0.238-0.121,0.012-0.145c-0.371-0.26-0.203-0.092-0.41-0.084
		c0.195-0.152,0.324-0.484,0.387-0.656c0.195,0.301-0.102,0.193,0.219,0.057c0.039-0.367,0.277-0.836,0.68-1.469
		c0.016,0.033,0.039,0.057,0.07,0.072c0.016,0.064,0.414,1.064,0.57,1.477c0.031,0.572-0.156,3.424,1.203,2.688
		c1.207,1.26,0.812,6.666,2.688,6.424c0,0.004,0.227,0.84,0.039,0.406c0.562,0.289,1.023,0.531,1.516,1.254
		c0.016-0.008-0.234-0.215-0.305-0.137c0.367,0.867,0.941,1.664,0.812,2.727c0.555-0.441,0.062-0.023,0.512,0.133
		c0.027-0.055-0.043-0.492,0.02-0.664c0.23,0.18,0.316,0.531,0.609,0.719c-0.086-0.211-0.078-0.262,0.031-0.164
		c-0.109-0.102-0.125-0.195-0.039-0.289c0.137,0.227,0.125,0.055,0.102,0.047c-0.105,0.711,0.246,2.383,1.055,2.195
		c0.492,1.336,1.168,1.594,1.117,2.586c-0.062-0.18,0.125,1.102,0.133,1.406c-0.043-0.082-0.09-0.164-0.156-0.234
		c0.281,3.133-0.969,6.883-2.887,8.508c0.043,0.605-0.188,0.973-0.84,1.777c0.129,0.168,0.227-0.043,0.234,0.316
		C78.641,73.844,78.137,75.152,77.953,76.258z M50,14.58c-19.531,0-35.416,15.889-35.416,35.416S30.473,85.422,50,85.422
		c6.488,0,12.578-1.766,17.805-4.836c0.191,0.043,0.371,0.062,0.559,0.066l0,0c-0.129,0.434-0.168,0.891-0.105,1.348l0.086,0.629
		c0.031,0.223,0.086,0.441,0.16,0.652C63.02,86.344,56.711,88.094,50,88.094c-21.008,0-38.1-17.094-38.1-38.102
		S28.992,11.896,50,11.896s38.102,17.092,38.102,38.1c0,4.172-0.68,8.18-1.926,11.934c0.031-0.484-0.043-0.957-0.23-1.41
		c-0.031-0.141-0.078-0.27-0.109-0.418c-0.117-0.449-0.344-0.867-0.625-1.234c-0.125-0.227-0.266-0.453-0.438-0.648
		c-0.039-0.059-0.082-0.102-0.121-0.156c-0.016-0.043-0.043-0.078-0.059-0.102c-0.016-0.047-0.039-0.086-0.055-0.121
		c0.582-2.523,0.891-5.152,0.891-7.852C85.422,30.469,69.531,14.58,50,14.58z M78.438,46.492c-0.129-0.34-0.316-0.652-0.539-0.92
		c-0.059-0.068-0.098-0.123-0.156-0.189c-2.207-13.314-13.797-23.512-27.75-23.512c-15.508,0-28.129,12.621-28.129,28.129
		c0,15.512,12.621,28.129,28.129,28.129c4.344,0,8.461-0.988,12.137-2.754c0.246,0.117,0.508,0.211,0.777,0.266
		c0.125,0.086,0.262,0.176,0.41,0.258c0.055,0.398,0.188,0.793,0.402,1.172l0.227,0.395C59.758,79.602,55.023,80.82,50,80.82
		c-16.992,0-30.812-13.824-30.812-30.816S33.008,19.191,50,19.191s30.816,13.82,30.816,30.812c0,0.6-0.027,1.195-0.059,1.785
		c-0.25-0.25-0.539-0.453-0.859-0.617c-0.195-0.271-0.418-0.512-0.691-0.711c-0.008-0.064-0.02-0.113-0.027-0.176
		c-0.012-0.164-0.047-0.32-0.086-0.48c-0.031-0.545-0.203-1.076-0.5-1.537c0-0.061,0.008-0.107,0.008-0.164
		C78.695,47.564,78.633,47.012,78.438,46.492z M50,36.443c-7.473,0-13.557,6.084-13.557,13.557c0,0.484,0.033,0.957,0.08,1.428
		l-0.299,0.568c-0.256,0.512-0.385,1.059-0.365,1.621c-0.143,0.273-0.248,0.562-0.307,0.867l-0.133,0.637
		c-0.072,0.348-0.084,0.699-0.031,1.039c-0.088,0.133-0.164,0.27-0.229,0.41c-0.9-2.008-1.396-4.234-1.396-6.574
		c0-8.949,7.279-16.236,16.232-16.236c4.512,0,8.598,1.852,11.539,4.828c-0.027,0-0.055-0.004-0.09-0.008
		c-0.07-0.004-0.133-0.012-0.219-0.016c-0.125-0.014-0.246-0.021-0.383-0.021c-0.391,0-0.781,0.078-1.16,0.221
		c-0.137,0.053-0.27,0.111-0.391,0.186c-0.285,0.127-0.551,0.303-0.789,0.516C56.18,37.58,53.219,36.443,50,36.443z M52.711,41.477
		c-0.176,0.07-0.34,0.141-0.492,0.23c-0.082,0.037-0.156,0.072-0.23,0.102c-0.428,0.211-0.801,0.504-1.084,0.859l-0.076,0.064
		c-0.264,0.203-0.5,0.451-0.695,0.732c-0.125,0.082-0.24,0.184-0.35,0.287c-2.654,0.088-4.895,1.836-5.707,4.24
		c-0.041,0.016-0.072,0.023-0.1,0.043c-0.168,0.021-0.332,0.061-0.492,0.105c-0.084-0.02-0.172-0.029-0.252-0.037L43.156,48.1
		c-0.096-0.008-0.205-0.012-0.305-0.012c-0.568,0-1.115,0.145-1.604,0.42c-0.02,0.008-0.041,0.012-0.057,0.02
		c0.709-4.23,4.385-7.471,8.809-7.471C50.943,41.051,51.855,41.207,52.711,41.477z M50,29.156c-11.492,0-20.844,9.352-20.844,20.844
		c0,6.414,2.908,12.137,7.459,15.961c-0.303,0.453-0.504,0.977-0.555,1.543l-0.072,0.762C35.977,68.477,35.98,68.68,36,68.883
		c-5.771-4.281-9.523-11.148-9.523-18.887c0-12.969,10.562-23.527,23.527-23.527c9.223,0,17.215,5.336,21.074,13.074
		c-0.203,0.109-0.398,0.236-0.574,0.385c-0.656,0.42-1.141,1.084-1.352,1.836C65.945,34.363,58.57,29.156,50,29.156z M44.477,72.859
		c0.051-0.027,0.104-0.062,0.16-0.086c0.203-0.047,0.402-0.109,0.596-0.203c0.061-0.023,0.115-0.051,0.172-0.082
		c0.088-0.035,0.184-0.082,0.264-0.125c0.111-0.059,0.225-0.105,0.324-0.176c0.287,0.109,0.592,0.191,0.916,0.219l0.176,0.023
		c0.096,0.008,0.195,0.008,0.295,0.008c0.064,0,0.121,0,0.186,0c0.252,0.059,0.52,0.094,0.771,0.094c0.248,0,0.5-0.039,0.748-0.094
		c0.641-0.062,1.264-0.312,1.783-0.75l0.545-0.461c0.168-0.133,0.324-0.297,0.451-0.469c0.504-0.047,1-0.102,1.496-0.18
		c0.152-0.016,0.297-0.035,0.445-0.07l1.184-0.258c0.074-0.008,0.141-0.039,0.211-0.055c0.266-0.078,0.543-0.152,0.805-0.238h0.277
		l0.297,0.062c0.023,0.004,0.062,0.012,0.09,0.016c0.371,0.301,0.82,0.527,1.285,0.641c0.082,0.152,0.188,0.305,0.297,0.449
		l0.188,0.227c0,0.195,0.027,0.383,0.059,0.57c-2.637,1.039-5.5,1.605-8.508,1.605C48.096,73.527,46.248,73.297,44.477,72.859z
		 M78.199,85.539c0.418-0.648,0.594-1.414,0.5-2.172l0.004-0.035c0.008-0.059,0.016-0.133,0.023-0.199
		c0.055-0.219,0.086-0.445,0.086-0.68c0.059-0.316,0.059-0.637,0-0.957c8.531-7.812,13.891-19.039,13.891-31.5
		c0-23.553-19.156-42.711-42.707-42.711C26.443,7.285,7.289,26.449,7.289,50S26.447,92.707,50,92.707
		c7.273,0,14.137-1.816,20.137-5.047c0.27,0.336,0.605,0.613,0.992,0.828c0.363,0.195,0.75,0.309,1.145,0.363
		c0.262,0.094,0.547,0.168,0.828,0.188h0.023c-6.781,4.031-14.688,6.352-23.129,6.352c-25.031,0-45.393-20.371-45.393-45.398
		C4.604,24.961,24.969,4.607,50,4.607c25.027,0,45.398,20.361,45.398,45.393C95.391,64.379,88.668,77.219,78.199,85.539z"/>
	<polygon fill="#1072B6" points="52.438,47.195 52.25,47.221 52.191,47.184 52.25,47.256 	"/>
</g>
</svg>
