<?xml version="1.0" encoding="utf-8"?>
<!-- Generator: Adobe Illustrator 16.0.1, SVG Export Plug-In . SVG Version: 6.00 Build 0)  -->
<!DOCTYPE svg PUBLIC "-//W3C//DTD SVG 1.1//EN" "http://www.w3.org/Graphics/SVG/1.1/DTD/svg11.dtd">
<svg version="1.1" id="Layer_1" xmlns="http://www.w3.org/2000/svg" xmlns:xlink="http://www.w3.org/1999/xlink" x="0px" y="0px"
	 width="25px" height="25px" viewBox="0 0 25 25" enable-background="new 0 0 25 25" xml:space="preserve">
<g>
	<polygon fill="#1072B6" points="13.046,11.794 13.012,11.771 12.95,11.775 12.965,11.797 	"/>
	<polygon fill="#1072B6" points="14.541,11.482 14.525,11.462 14.561,11.465 14.563,11.438 14.498,11.468 14.515,11.47 	"/>
	<polygon fill="#1072B6" points="18.236,21.329 18.165,21.32 18.227,21.344 	"/>
	<polygon fill="#1072B6" points="10.116,16.445 10.069,16.469 10.115,16.462 	"/>
	<path fill="#1072B6" d="M12.5,0C5.607,0,0,5.607,0,12.5C0,19.391,5.607,25,12.5,25C19.391,25,25,19.391,25,12.5
		C25,5.607,19.391,0,12.5,0z M18.897,20.589l-0.032,0.07l0.012,0.059l-0.024,0.161l0.022,0.067l-0.021,0.024l0.004-0.054
		l-0.041-0.022l0.021-0.053l-0.041,0.051l0.026,0.012l-0.026-0.002l-0.053,0.088l0.028-0.009l-0.017,0.072l-0.035,0.016l0.021,0.048
		l-0.053,0.078L18.653,21.2l-0.015-0.048l-0.042-0.012l0.041,0.031l-0.027,0.006l0.004,0.046l-0.037,0.023l0.023-0.052l-0.02,0.006
		l-0.055-0.087l0.037,0.077l-0.005,0.054l-0.026-0.01l-0.016,0.08l0,0l-0.003,0.019l-0.033-0.021l0.002-0.027l-0.011,0.027
		l-0.017-0.021l0.002-0.026l-0.009,0.018l0.03,0.05l-0.039,0.015l0.021,0.01l0,0l0.006,0.002l-0.011,0.036l-0.036-0.013l0,0l0,0l0,0
		l0,0l0.023,0.029l-0.039,0.051l-0.054-0.005l-0.011-0.023l0,0l-0.021-0.045l0.008,0.027l-0.096-0.026l-0.066,0.022l-0.02-0.075
		l0.017,0.011l0.003-0.027l-0.011-0.056l-0.021,0.033l0.015,0.013l-0.026-0.003l-0.034-0.106l-0.044-0.02L18.01,21.04l-0.026-0.014
		l-0.013-0.163l0.074,0.08l0.003,0.055l0.023-0.062l-0.017-0.003l-0.038-0.085l-0.029,0.024l0.008-0.081l-0.078-0.129l0.02-0.015
		l-0.053-0.097l-0.021-0.159l0.031-0.052V20.34l0,0l-0.002-0.072l0.119,0.074l0.001-0.019l0.034,0.014l0.003-0.035l0.014,0.045
		l0.053,0.008l0.193,0.146l0.082-0.011l0.015,0.047L18.4,20.499l0.049-0.034l0.048,0.07l0.01-0.019l-0.041-0.05l0.065-0.021
		l0.033,0.021l0.048-0.031l0.043,0.03l0.069-0.065l0.051,0.031l0.022-0.052l0.044,0.012l0.062,0.099l-0.032,0.07L18.897,20.589z
		 M19.488,19.065l-0.021,0.033l0.036,0.014l0.013,0.047l-0.017-0.001l-0.021,0.007l0.002,0.074l-0.048,0.019l-0.005-0.004
		l0.008-0.019l-0.026-0.002h-0.006l0.022,0.028l-0.088,0.066h-0.396l0.011-0.019l-0.075,0.021l-0.059-0.024l0.021,0.026l0.002,0.004
		l-0.085,0.046l0.148-0.049l-0.123,0.06l-0.185,0.168l-0.111,0.026l-0.07-0.006l0,0l-0.018-0.001l0.01,0.073l0.057-0.03
		l-0.027,0.117l-0.04-0.049l-0.03-0.079l0.008,0.031l-0.034-0.023l-0.037,0.023l-0.037-0.087l0.024,0.013l-0.007-0.02l-0.064,0.003
		l-0.057-0.051l0,0l0,0l0.016-0.053l0.034-0.007l-0.012-0.057l-0.064-0.005l-0.016,0.072l-0.025-0.013l-0.057,0.033l-0.038-0.042
		l0,0l-0.035-0.04l0.078,0.024l0.062-0.066l-0.044-0.115l-0.123,0.081l-0.046-0.004l0.032,0.03l0.064-0.012l-0.022,0.053
		l-0.064-0.005l-0.111,0.062l-0.146,0.123l-0.313-0.212l-0.073,0.013l-0.101-0.064l-0.06,0.06l-0.024-0.022l-0.028,0.006
		l0.005-0.046l-0.094-0.09l-0.019-0.002l-0.104-0.019l-0.049-0.05l-0.002-0.016l-0.091-0.15l-0.062-0.105l0.021-0.025l-0.031-0.06
		l0.049-0.04l0.015-0.045l-0.053-0.189l0.021,0.04l-0.042-0.124l-0.042-0.041l0.048,0.097l-0.066-0.108l-0.108-0.101l0.125,0.112
		l-0.124-0.121l-0.045-0.015l-0.057,0.042l-0.125-0.021l0.108-0.082l0.027-0.2l0.006,0.029l0.02-0.007l-0.006-0.019l-0.107-0.232
		l-0.064,0.123l-0.017,0.091l-0.055,0.096l0.017,0.021l-0.036,0.013l-0.061-0.031l-0.076,0.048l-0.091,0.001l0.059-0.133
		l0.103,0.037l0.021-0.018l0.028-0.107l-0.005-0.055l-0.019,0.006l0.034-0.05l-0.015-0.056l0.02-0.009l0.035-0.079l0.117-0.099
		l-0.045-0.104l0.074-0.062l-0.024-0.028l-0.001-0.083l-0.035-0.106l-0.017,0.184l-0.034-0.021l-0.06,0.058l-0.079,0.178
		l-0.064,0.013l-0.016-0.021l-0.024,0.035l0.029-0.006l-0.114,0.043l-0.146,0.143l-0.006,0.064l-0.017-0.02l-0.036,0.016
		l-0.017,0.071L15.6,17.924l0.063-0.022L15.638,18l-0.039-0.059l-0.047,0.023l-0.095-0.146l-0.039,0.014l0.032-0.052L15.449,17.8
		l0.034,0.013l-0.009,0.009l0.015,0.039l0.037-0.008l-0.016-0.009l-0.007-0.027l-0.013,0.025l-0.029-0.249l-0.009-0.01l0,0
		l-0.081-0.093l0.005-0.053l-0.047-0.078l-0.05-0.041l-0.028,0.016l-0.021-0.056l0.012,0.056l-0.049-0.059l0.021-0.025l-0.034-0.014
		l0.02-0.025l-0.013-0.04l0.045,0.006l-0.015,0.025l0.029-0.034l-0.028-0.076l-0.035-0.013L15.127,17.1l0.005-0.043l0.027-0.009
		l-0.039-0.047l0,0l-0.05-0.062l-0.02,0.025l-0.019-0.02l-0.019,0.008l0.024,0.03l-0.107-0.011l-0.099-0.101l-0.062-0.005
		l-0.02,0.007l0.008,0.019l-0.081-0.006l-0.112-0.114l-0.161-0.105l-0.103,0.046l-0.179-0.037l-0.046,0.006l-0.278,0.002
		l-0.021,0.01l-0.203,0.08L13.28,16.84l-0.15-0.005l-0.133-0.032l-0.072,0.012l-0.339,0.161l-0.166,0.04l-0.038,0.033l-0.049,0.143
		l-0.136,0.115l-0.043-0.021l-0.068,0.041l-0.005-0.039l-0.025-0.021l-0.116-0.001l-0.012,0.025l-0.061-0.024l-0.021,0.037
		l-0.045-0.004l-0.03-0.067l-0.064,0.021l-0.112-0.047l-0.227,0.007l-0.048,0.031l-0.113-0.028l-0.026-0.002l-0.135,0.109
		l0.031,0.038l-0.044-0.013l-0.004,0.037l-0.034-0.012l-0.012,0.035l-0.114-0.047l0.018,0.02l-0.046,0.015l-0.013,0.035
		l-0.083,0.028l-0.014,0.054l-0.063,0.005l0.007,0.029l-0.071-0.009l0.014-0.035l-0.02,0.008l-0.021,0.035l0.043,0.022l-0.02,0.007
		l-0.076-0.037L10.5,17.576l-0.065-0.052l-0.129,0.005l-0.049-0.03l-0.03,0.024l-0.066-0.052l-0.104-0.046L9.987,17.29l-0.096-0.068
		l-0.054,0.007l-0.011,0.015L9.802,17.14l0.017-0.192l0.049,0.042l0.046,0.004l0.107-0.108l-0.007-0.213l0.042-0.068l-0.004-0.066
		l0.022-0.025l-0.005-0.044l0.003-0.138l-0.144-0.398l-0.013-0.15l0.001-0.018l0.024-0.162l-0.024-0.131l-0.068-0.117l0.013-0.037
		L9.838,15.26l-0.086-0.127l-0.01-0.094l0.022-0.045l-0.04-0.149l-0.2-0.367l0.034,0.03l0.015-0.072l-0.01,0.1l0.026,0.022
		l0.002-0.12l0.021,0.15l0.016-0.056l0.008,0.112l0.013-0.054l0.004,0.064l0.057-0.023l0.017-0.081l-0.083-0.079l-0.014-0.141
		l-0.003,0.037l-0.017-0.021L9.633,14.3l0,0l0.01-0.021l0.062,0.124l-0.001,0.004l0,0l-0.018,0.095l0.048-0.031l0.004-0.046v0.032
		l0,0v0.071l0.038,0.077l0.04-0.04l0,0l0.009-0.011v-0.102l0.028,0.002l-0.005-0.046l-0.026-0.01l-0.081-0.21l-0.032-0.031
		l-0.013-0.074l0.012-0.018l-0.061-0.126l0.032-0.162l0.102-0.119l0.002-0.109l0.023-0.053l-0.033-0.123l0.107-0.209l0.065-0.012
		l-0.046,0.104l0.003,0.064l0.018-0.017l-0.022,0.06l0.048-0.021l0.014,0.027L10,13.328l-0.007-0.019l0.016,0.012l-0.016-0.021
		l0.03-0.044l-0.006-0.038l0.018,0.011l0.02-0.005l0.015-0.056l0.074-0.038l0.175-0.029l0.051-0.069l0.046-0.004l0.031-0.054
		l0.075-0.03l0.013-0.045l0.024,0.021l0.094-0.035l0.019,0.002l-0.009-0.012l0.049-0.051l0.019,0.002l-0.032,0.044l0.019,0.012
		l0.024,0.011l0.067-0.032l0.006,0.029l0.052,0.03l0.074-0.028L10.938,12.9l0.046-0.005l0.002-0.004l0,0l0.02-0.03l0.026,0.002
		l-0.006-0.02l0.074-0.04l-0.002,0.021l0.19-0.018l0.07-0.077l0.01-0.008l0.017,0.012l0.008,0.01v-0.009l-0.007-0.021l0.078,0.025
		l0.024,0.029l0.038-0.022l0.028-0.018l0.062,0.007l0.063-0.002l0.261-0.088l0.12-0.126l0.052-0.079l-0.006-0.037l0.046-0.005
		l-0.017-0.029l0.03-0.034l0.037-0.005l0.135-0.08l0.003-0.036l-0.063-0.017l0.023-0.062l-0.021-0.066l0.017-0.081l0.048-0.034
		l-0.018-0.01l0.03-0.035l0.036-0.005l0.001-0.017l0.034,0.021l-0.015-0.039l0.012-0.024l0.07,0.017l-0.023-0.031l0.061-0.085
		l0.028-0.007l0.015,0.029l-0.028,0.005l-0.013,0.038l0.025,0.029l0.024,0.002l-0.006,0.072l0.032,0.03l0.021,0.094l0.048,0.059
		l0.004-0.046l0.022-0.044l0.016,0.012l-0.027-0.068l0.025-0.008l0.074,0.092l-0.038-0.087l0.025,0.012l-0.017-0.021l0.049-0.042
		l-0.01-0.005l-0.001,0.018l-0.039,0.015l-0.012-0.056l-0.062-0.023l0.038-0.024l-0.023-0.011l-0.013,0.018l-0.014-0.028
		l0.062,0.005l-0.043-0.031l0.035,0.002l0.01,0.001l0.02,0.001l-0.027-0.02l0.027,0.011l-0.008-0.019l-0.035-0.013l0.019-0.008
		L12.724,11.7l0.017,0.02l-0.008-0.019l0.026,0.012l0.002-0.021l0.034,0.022l-0.019-0.001l0.008,0.019l-0.018-0.001l0.043,0.021
		l0.002-0.007l0.032,0.029l-0.017-0.026l0.021,0.001l-0.023-0.031l0.059,0.034l0.023,0.04l0.025,0.012l-0.027,0.005l0.044-0.003
		l-0.015-0.012l0.019-0.017l0.025-0.081l0.014,0.049l0.019-0.008l-0.018-0.011l0.037-0.013l-0.017-0.001l0.013-0.065l0.039-0.024
		l-0.027-0.002l0.021-0.016l-0.03,0.015l-0.027,0.042l0.019-0.014l-0.021,0.025v-0.006l-0.011,0.013l-0.026-0.103l0.027-0.007
		l-0.016-0.011l0.036-0.022l-0.008-0.01l0.035,0.013l0.012-0.026l0.009,0.019l0.021-0.034l0.028-0.016L13.105,11.5l0.032,0.013
		l0.018,0.038l0.019-0.017l0.042,0.042l-0.05-0.05l0.029-0.026l-0.019-0.001l0.002-0.017l-0.047,0.021l-0.017-0.018l0.058-0.043
		l-0.056,0.033l0.011-0.027l-0.017-0.011l0.055-0.002l-0.006-0.039l0.02-0.007l0.021,0.065l0.04-0.022l0.015,0.027l0.043,0.003
		l-0.042-0.021l0.039-0.034l-0.017-0.009l-0.01,0.016l-0.052-0.022l0.038-0.025l-0.026-0.002l-0.023-0.038l0.055-0.022l-0.016-0.01
		l0.038-0.033l-0.013,0.035l0.021-0.018l0.006,0.027l0.021-0.034l0.026,0.012l0.01-0.1l0.033,0.022l-0.003,0.003l0,0l-0.019,0.022
		l-0.016,0.081l0.032-0.07l-0.002,0.026l0.035-0.004l-0.012,0.036l0.025,0.027l0.004-0.046l0.035,0.004l-0.015-0.037l0.028-0.018
		l-0.006-0.026l0.038-0.024l-0.049-0.032l0.001-0.019l0.007,0.019l0.001-0.018l0.026,0.012l0.027-0.016l-0.019,0.017l0.017,0.002
		l-0.02,0.019l0.019,0.001l0.004,0.045l0.037-0.016l-0.017-0.018l0.012-0.019l0.056-0.03l-0.021,0.043l0.018-0.006l0.022,0.056
		l0.015-0.053l0.007,0.02l0.019-0.018l-0.005-0.028l0.046,0.012l0.015,0.003l-0.033-0.021l-0.015-0.047l0.035,0.011l0.001-0.017
		l0.052,0.022l0.015,0.045l0.019-0.016l-0.001,0.018l0.019-0.017l0.025,0.03l-0.006-0.028l0.024,0.012l0.005,0.037l0.061,0.043
		l0.067,0.136l0.012-0.018l0.058,0.052l-0.02,0.006l0.017,0.029l-0.038,0.006l0.02,0.001l-0.033,0.062l0.004,0.055l-0.019,0.008
		l0.015,0.03l-0.021,0.034l0.029-0.024l0.006-0.072l0.04,0.05l0.006,0.046l0.018,0.002l-0.031-0.131l0.019-0.025l0.014,0.048
		l0.015-0.036l0.015,0.019l0.012-0.017l0.006,0.011l-0.021-0.048l0.03,0.049l-0.006-0.037L14.11,11.43l0.054-0.004l0.035,0.013
		l0.015,0.021l0.053,0.004l0.028,0.002l-0.003,0.036l0.019-0.024l-0.003,0.036l0.019,0.021l0.007,0.01l-0.023,0.043l0.022-0.037
		l-0.002,0.029l0.013-0.035l0.025,0.002l-0.024-0.012l0.019-0.018l-0.015-0.028l0.009,0.001l0.019,0.001l-0.008-0.02l0.032,0.058
		l-0.006-0.045l0.026,0.012l0.021,0.063l0.026-0.004l-0.003-0.066l0.017,0.02l-0.015-0.038l0.035,0.004l0.012-0.026l-0.024,0.013
		l-0.005-0.003l-0.006-0.013h0.01l0.001-0.02l-0.024-0.002l0.047-0.022l0.01-0.017l-0.037,0.016l-0.008-0.021h-0.041l0.002-0.026
		l-0.021,0.017l-0.023-0.028l0.002-0.027l0.042-0.061l0.006,0.027l0.022-0.034l0.016,0.019l-0.014-0.048l0.015,0.021l0.03-0.017
		l-0.004-0.045l0.037-0.024l-0.019,0.007l0.015-0.082l0.03-0.015L14.57,11.08l0.024,0.012l0.077-0.047l0.017,0.01l-0.048-0.068
		l0.007-0.064l0.062-0.012l0.005-0.063l0.019,0.021l-0.009-0.02l0.029-0.007l0.04,0.049l0.001-0.018l0.025,0.003l-0.05-0.033
		l0.018,0.001l-0.002-0.063l0.053,0.013l-0.013,0.046l0.019-0.008l0.001-0.008l0.013,0.037l0.021-0.016l-0.016-0.03l0.036,0.013
		l-0.042-0.04l0.02-0.018l0.044,0.013l-0.012-0.065l0.069,0.024l0.022-0.054l0.006,0.046l0.032,0.031l0.126-0.007l0.042,0.03
		l0.049-0.042l0.006,0.029l0.029-0.017l0.013,0.047l0.014-0.054l0.029-0.017l0.06,0.023l0,0l0,0l-0.043-0.022l0.01-0.031l0,0
		l0.006-0.022l0.018-0.008l-0.033-0.031l0.05-0.042l-0.011-0.001l-0.044-0.004l0.02-0.005l-0.019-0.011l0.02,0.001l-0.026-0.012
		l0.02-0.01l-0.019-0.001l0.001-0.017h-0.081l-0.005,0.002l0,0l-0.031,0.013l-0.006-0.026l-0.035-0.015l0.009-0.007l-0.006-0.021
		l-0.046,0.006l0.019-0.018l-0.007-0.019l0.043,0.013l0.003-0.037l0.035,0.03l0.011,0.066l0.021-0.025l-0.019-0.012l-0.004-0.056
		l0.042,0.05l-0.007-0.028l0.027-0.015l0.004,0.055l0.021-0.025l0.053,0.098l0.047-0.032l0.019,0.011l-0.007-0.027l0.02,0.001
		l0.053,0.114l0.053-0.004l-0.011,0.026l0.028-0.016l0.016,0.028l0.019-0.017l-0.012,0.035l0.083-0.038l0.035,0.014L15.71,10.69
		l0.023,0.03l0.037-0.025l0.008,0.029l0.019-0.008l0.015,0.038L15.789,10.8l0.032-0.055l0.105,0.038l0.039-0.042l0.021,0.065
		l0.103,0.055l-0.016-0.028l0.054,0.016l-0.032-0.022l0.046-0.022l0.045-0.004l0.007,0.017l0.104-0.045l-0.08,0.076l0.023,0.021
		l0.012-0.026l0.077-0.029l-0.04,0.042l0.005,0.019l0.029-0.006l-0.032,0.044l0.018,0.001l-0.002,0.026l0.021-0.017l0.033,0.013
		l0.028-0.017l0.033-0.051l-0.062-0.024l0.115-0.071l-0.031,0.033l0.019,0.001l0.027,0.085l0.028,0.002l-0.017-0.02l0.028-0.016
		l0.048,0.06l-0.056,0.069l0.002-0.028l-0.019-0.001l0.006,0.029l-0.023,0.045l-0.025-0.003l0.007,0.038l-0.016-0.029l-0.012,0.016
		l-0.018-0.009l0.048,0.067l-0.053-0.015l0.024,0.032l-0.033,0.052l-0.037,0.014l0.021-0.024l-0.014-0.047l-0.012,0.025
		l-0.025-0.009l-0.012,0.044l-0.002-0.02l0,0l-0.003-0.026l-0.031,0.052l-0.006-0.027l-0.027,0.012l-0.011,0.025l0.026,0.014
		l-0.02,0.015l-0.017-0.01L16.24,11.3l0.017,0.012l0.039-0.025l-0.054,0.098l-0.014,0.053l-0.058,0.022l-0.054,0.104l-0.055,0.014
		l0.012,0.066l0.041,0.049l0.027-0.006l-0.001,0.019l0.01-0.009l0.133,0.105l0.028,0.074l0.094,0.056l-0.003,0.037l0.028-0.006
		l0.043,0.023l-0.008-0.021l0.027-0.007l0.109,0.092l0.087,0.036l0.026,0.046l0.067,0.109l0.141,0.032l0.113,0.047l0.032,0.039
		l0.009,0.084l0.061,0.033l0.029,0.049l0.063,0.016l0.05,0.04l0.018,0.012l0.153-0.022l0.086-0.059l0.03-0.115l0.079-0.084
		l0.08-0.177l-0.014-0.047l0.035-0.107l0.068-0.14l-0.021-0.168l0.035-0.089l-0.035-0.104l0.057-0.132l0.036,0.003l-0.018-0.011
		l0.009-0.01l-0.018,0.009l0.011-0.025l-0.02-0.086l0.047-0.032l0.022-0.046l0.03,0.069l-0.005-0.046l0.02-0.008l-0.045-0.023
		l0.048-0.013l-0.046-0.005l-0.031-0.03l0.02-0.008l-0.026-0.011l0.005,0.037l-0.025-0.004l0.045-0.086l0.025,0.002l-0.024-0.013
		l0.051-0.067l0.003,0.063l0.011-0.035l0.019,0.012l0.021-0.026l-0.02,0.018l-0.015-0.029l0.015-0.055l0.036-0.004l-0.026-0.002
		l0.014-0.063h0.008l0.039-0.116l-0.004-0.046l0.021-0.005l0,0l0.032-0.008l0.032-0.052l0.038-0.005l0.007,0.009l0.01,0.009
		l-0.051,0.069l0.036-0.016l0.001-0.018l0.016,0.038l0.026,0.002l0.024,0.113l-0.013,0.136l0.024,0.03l0.036-0.006l0.044,0.021
		l-0.059,0.04l0.002,0.065l0.044,0.014l-0.003,0.036l0.051,0.042l-0.033,0.081l0.054-0.016l-0.017,0.083l0.019,0.093l-0.026,0.09
		l0.038,0.076l0.016,0.122l0.042,0.041l0.055-0.022l0.024-0.053l0.033,0.021l0.06-0.041l0.033,0.124l0.061,0.025l0.031,0.058
		l0.053,0.012l0.015,0.04l0.018,0.001l-0.038,0.042l0.002,0.045l0.027-0.007V12l-0.05,0.05l0.032,0.04v0.101l0.032,0.048
		l-0.007,0.065l-0.017-0.001l-0.006,0.046l0.093,0.154l0.046-0.004l-0.021,0.045l0.045,0.104L18.99,12.72l0.018,0.001l-0.06,0.15
		L19,12.988l0.036,0.003L19.01,13.09l0.044,0.069l0.089,0.045l0.022,0.038l0.027,0.004l0.012-0.036l0.029,0.086h0.079l0.004-0.039
		l0.043,0.124l-0.033-0.023l0.045,0.061l0.037,0.013l-0.016-0.047l0.027,0.002l0.012,0.065l0.054-0.003l0.043,0.03l-0.001,0.009
		l-0.011,0.01l0.034,0.038l0.024,0.013l0.004-0.036h0.008l0.025,0.005l0.007,0.035l0.027,0.002l-0.002,0.027l0.017-0.006
		l0.045,0.096l-0.039-0.042l-0.012,0.019l-0.025-0.011l0.016,0.02l-0.027,0.008l0.024,0.027l-0.011,0.02l0.043,0.031l-0.021,0.006
		l0.005,0.028l0.063,0.008l-0.013,0.034l0.027-0.017l0.034,0.04l-0.021,0.045l0.008,0.001l-0.01,0.026l0.035-0.016l-0.007,0.084
		l0.01-0.02l0.033,0.041l0.01-0.018l-0.027,0.099l0.043,0.132l-0.038,0.016l0.037-0.005l0.008,0.02l-0.021,0.007l0.038,0.003
		l-0.035,0.061l0.061-0.058l0.049,0.07l0.018,0.021l-0.016-0.04l-0.021-0.063l0.03-0.044l0.012-0.02l0.033,0.068l0,0l0.004,0.008
		l0.115,0.104l-0.009-0.052l0.017,0.011l-0.023-0.048l0.013-0.024l0.018,0.01l0.005,0.038l0.003-0.037l0.022,0.048l-0.011,0.007
		l-0.025-0.011l0.016,0.037l0.018,0.012l0.002-0.028l0.013,0.048l-0.015,0.071l-0.018-0.001l0.018,0.102l-0.019,0.016l0.021,0.059
		l-0.02,0.007l0.031,0.058l0.03-0.032l0.102,0.175l0.002-0.018l0.032,0.02l0.001-0.017l0.035,0.021l-0.015-0.039l0.024,0.011
		l-0.002,0.029l0.021-0.025l-0.014,0.035l0.036,0.011l0.033,0.125l0.041,0.05l0.001-0.011l0.051,0.03l-0.013,0.03l0.012-0.019
		l0.026,0.021l-0.015,0.034l0.048,0.069l-0.028,0.017l0.095,0.036l0.005,0.046l-0.047,0.014l0.058-0.014l-0.032,0.023l-0.004,0.055
		l0.036,0.032l-0.021,0.015l0.025,0.001l-0.013,0.046l0.022-0.054l0.016,0.038l0.02,0.003l-0.05,0.141l0.017,0.002l-0.016,0.08
		l0.017,0.013l-0.025,0.071l0.013-0.026l0.019,0.077l0,0l0.001,0.006l-0.002-0.004l0,0l-0.038-0.054l-0.002,0.028l0.024,0.028
		l-0.039,0.017l0.025,0.028l-0.03,0.025l0.023,0.015l0,0l0.013,0.007l-0.021,0.026l0.027-0.016l0.023,0.039l0.011,0.085l0.016,0.111
		l0.032,0.039l-0.003,0.021l-0.014,0.08l0.021,0.04l-0.015,0.072L20.752,16.4l0.021,0.001l-0.085,0.131l0.006,0.038l-0.025-0.013
		l0.024,0.021l-0.042,0.151l-0.013,0.026l-0.077,0.16l-0.007,0.182l-0.104,0.257l-0.069,0.048l-0.016,0.063l-0.008-0.001
		l0.025,0.013l-0.016,0.072l-0.068,0.03l-0.038,0.051l-0.008-0.021l-0.028,0.018l0.035,0.013l-0.114,0.054l0.002-0.027l-0.016-0.001
		l0.007,0.018l-0.044,0.062l-0.032,0.072l-0.036-0.003l0.017,0.017l-0.016,0.046l-0.035,0.016l0.003-0.037L19.98,17.9l-0.023-0.021
		l0.008,0.026l0.008-0.007l-0.002,0.026l0.021-0.016l-0.001,0.008l-0.017,0.072l-0.012,0.046l-0.063,0.002l0.052,0.023l-0.046,0.005
		l0.024,0.01l-0.076,0.067l-0.005,0.063l-0.028,0.006l0.015,0.028l-0.023,0.062l-0.065,0.023l0.036,0.011l-0.01,0.018l0.019-0.007
		l0.012,0.057l-0.02,0.007l0.003-0.036l-0.027,0.005l0.022,0.056l-0.062,0.015l-0.089,0.166l-0.034-0.013l0.023,0.039l-0.048,0.032
		l0.018,0.001l-0.024,0.053l0.001,0.092l-0.03,0.095l0,0l-0.018,0.049l-0.021,0.061l-0.018-0.011L19.488,19.065z M12.5,3.645
		c-4.883,0-8.854,3.972-8.854,8.854s3.972,8.856,8.854,8.856c1.622,0,3.145-0.441,4.451-1.208c0.048,0.01,0.093,0.015,0.14,0.016
		l0,0c-0.032,0.108-0.042,0.223-0.027,0.337l0.021,0.157c0.008,0.056,0.021,0.111,0.04,0.163c-1.371,0.766-2.948,1.203-4.626,1.203
		c-5.252,0-9.525-4.273-9.525-9.525S7.248,2.974,12.5,2.974s9.526,4.273,9.526,9.525c0,1.043-0.171,2.045-0.482,2.983
		c0.008-0.121-0.011-0.239-0.058-0.351c-0.007-0.035-0.018-0.069-0.027-0.104c-0.029-0.113-0.086-0.217-0.156-0.308
		c-0.031-0.057-0.066-0.113-0.11-0.163c-0.009-0.014-0.021-0.026-0.031-0.038c-0.004-0.011-0.01-0.02-0.014-0.027
		c-0.004-0.011-0.009-0.02-0.013-0.03c0.144-0.631,0.223-1.288,0.223-1.963C21.356,7.617,17.383,3.645,12.5,3.645z M19.609,11.623
		c-0.032-0.085-0.079-0.163-0.135-0.23c-0.013-0.017-0.024-0.031-0.039-0.047c-0.55-3.329-3.449-5.878-6.936-5.878
		c-3.877,0-7.032,3.155-7.032,7.032c0,3.878,3.155,7.032,7.032,7.032c1.086,0,2.115-0.247,3.034-0.688
		c0.062,0.029,0.127,0.052,0.196,0.066c0.031,0.021,0.065,0.044,0.101,0.064c0.014,0.1,0.047,0.2,0.1,0.293l0.057,0.099
		c-1.047,0.534-2.231,0.839-3.487,0.839c-4.248,0-7.703-3.456-7.703-7.704S8.252,4.798,12.5,4.798s7.704,3.455,7.704,7.703
		c0,0.15-0.007,0.299-0.015,0.446c-0.062-0.062-0.135-0.113-0.214-0.154c-0.048-0.068-0.105-0.128-0.172-0.178
		c-0.002-0.016-0.005-0.028-0.007-0.044c-0.003-0.041-0.012-0.08-0.021-0.12c-0.007-0.136-0.05-0.269-0.125-0.384
		c0.001-0.015,0.002-0.027,0.002-0.041C19.674,11.891,19.658,11.753,19.609,11.623z M12.5,9.111c-1.868,0-3.389,1.521-3.389,3.389
		c0,0.121,0.008,0.239,0.02,0.357l-0.075,0.142c-0.064,0.128-0.096,0.265-0.091,0.405c-0.036,0.068-0.062,0.141-0.077,0.217
		L8.855,13.78c-0.018,0.087-0.021,0.175-0.008,0.26c-0.022,0.033-0.041,0.068-0.057,0.103c-0.225-0.502-0.349-1.059-0.349-1.644
		c0-2.237,1.82-4.059,4.058-4.059c1.128,0,2.149,0.463,2.885,1.207c-0.007,0-0.014-0.001-0.023-0.002
		c-0.017-0.001-0.034-0.003-0.054-0.004c-0.031-0.003-0.063-0.005-0.096-0.005c-0.098,0-0.196,0.018-0.29,0.055
		c-0.034,0.013-0.067,0.028-0.098,0.046c-0.071,0.032-0.137,0.076-0.197,0.129C14.045,9.395,13.305,9.111,12.5,9.111z
		 M13.178,10.369c-0.044,0.018-0.085,0.035-0.124,0.058c-0.02,0.009-0.038,0.018-0.057,0.025c-0.107,0.053-0.2,0.126-0.271,0.215
		l-0.019,0.016c-0.066,0.051-0.125,0.113-0.174,0.183c-0.031,0.022-0.06,0.046-0.087,0.072c-0.664,0.022-1.224,0.459-1.427,1.06
		c-0.01,0.004-0.018,0.006-0.025,0.011c-0.042,0.005-0.083,0.015-0.123,0.026c-0.021-0.005-0.043-0.007-0.063-0.009l-0.019-0.001
		c-0.024-0.002-0.051-0.003-0.076-0.003c-0.142,0-0.279,0.036-0.401,0.105c-0.005,0.002-0.01,0.003-0.014,0.005
		c0.177-1.058,1.096-1.868,2.202-1.868C12.736,10.263,12.964,10.302,13.178,10.369z M12.5,7.289c-2.873,0-5.211,2.338-5.211,5.211
		c0,1.603,0.727,3.034,1.865,3.99c-0.076,0.113-0.126,0.244-0.139,0.386l-0.018,0.19C8.994,17.119,8.995,17.17,9,17.221
		c-1.443-1.07-2.381-2.788-2.381-4.722c0-3.242,2.641-5.882,5.882-5.882c2.305,0,4.303,1.334,5.269,3.269
		c-0.051,0.027-0.1,0.059-0.144,0.096c-0.164,0.105-0.285,0.271-0.338,0.459C16.487,8.591,14.643,7.289,12.5,7.289z M11.119,18.215
		c0.013-0.007,0.026-0.016,0.04-0.022c0.051-0.011,0.101-0.028,0.149-0.05c0.015-0.006,0.029-0.013,0.043-0.021
		c0.022-0.009,0.046-0.021,0.066-0.031c0.028-0.015,0.056-0.027,0.081-0.044c0.072,0.027,0.148,0.048,0.229,0.054l0.044,0.006
		c0.024,0.002,0.049,0.003,0.074,0.003c0.016,0,0.03,0,0.046-0.001c0.063,0.014,0.13,0.024,0.193,0.024
		c0.062,0,0.125-0.01,0.187-0.023c0.16-0.016,0.316-0.08,0.446-0.188l0.136-0.116c0.042-0.033,0.081-0.074,0.113-0.117
		c0.126-0.011,0.25-0.026,0.374-0.044c0.038-0.005,0.074-0.009,0.111-0.018l0.296-0.064c0.018-0.003,0.035-0.01,0.053-0.014
		c0.066-0.02,0.136-0.038,0.201-0.06h0.07l0.073,0.016c0.007,0.001,0.016,0.003,0.024,0.004c0.093,0.075,0.205,0.131,0.321,0.16
		c0.022,0.038,0.047,0.076,0.076,0.112l0.046,0.057c0,0.049,0.006,0.095,0.014,0.143c-0.659,0.258-1.375,0.401-2.127,0.401
		C12.024,18.382,11.562,18.324,11.119,18.215z M19.55,21.385c0.104-0.162,0.148-0.354,0.125-0.543l0.001-0.009
		c0.002-0.015,0.004-0.033,0.005-0.05c0.015-0.055,0.021-0.111,0.022-0.17c0.015-0.079,0.015-0.159,0-0.239
		c2.133-1.953,3.473-4.76,3.473-7.875c0-5.888-4.789-10.678-10.677-10.678S1.822,6.612,1.822,12.5S6.612,23.177,12.5,23.177
		c1.819,0,3.534-0.455,5.034-1.262c0.068,0.084,0.151,0.154,0.248,0.207c0.091,0.049,0.188,0.077,0.287,0.091
		c0.066,0.023,0.136,0.042,0.207,0.047h0.005c-1.695,1.007-3.671,1.587-5.782,1.587c-6.258,0-11.348-5.092-11.348-11.349
		C1.151,6.24,6.242,1.152,12.5,1.152c6.257,0,11.349,5.09,11.349,11.348C23.848,16.095,22.167,19.305,19.55,21.385z"/>
	<polygon fill="#1072B6" points="13.109,11.799 13.063,11.805 13.048,11.796 13.062,11.814 	"/>
</g>
</svg>
