<?xml version="1.0" encoding="utf-8"?>
<!-- Generator: Adobe Illustrator 16.0.1, SVG Export Plug-In . SVG Version: 6.00 Build 0)  -->
<!DOCTYPE svg PUBLIC "-//W3C//DTD SVG 1.1//EN" "http://www.w3.org/Graphics/SVG/1.1/DTD/svg11.dtd">
<svg version="1.1" id="Layer_1" xmlns="http://www.w3.org/2000/svg" xmlns:xlink="http://www.w3.org/1999/xlink" x="0px" y="0px"
	 width="35px" height="35px" viewBox="0 0 35 35" enable-background="new 0 0 35 35" xml:space="preserve">
<g>
	<path fill="#FFFFFF" d="M33.065,17.24c0.001,0.066,0.01,0.129,0.011,0.195h-5.721c0.002,0.043,0.002,0.086,0,0.13h5.721
		c-0.001,0.066-0.01,0.129-0.011,0.195H35c0-0.173,0-0.347,0-0.521H33.065z"/>
	<path fill="#FFFFFF" d="M23.524,3.13c0.061,0.026,0.119,0.055,0.178,0.081l0.737-1.78c-0.161-0.066-0.322-0.133-0.483-0.2
		l-0.74,1.785C23.276,3.041,23.34,3.06,23.4,3.083l-2.188,5.284c0.041,0.017,0.083,0.032,0.123,0.048L23.524,3.13z"/>
	<path fill="#FFFFFF" d="M24.897,3.786l0.905-1.693l-0.116-0.062c-1.201,2.248-2.401,4.495-3.601,6.743
		c0.039,0.021,0.079,0.04,0.117,0.06L24.897,3.786z"/>
	<path fill="#FFFFFF" d="M24.423,24.515l4.044,4.044c-0.046,0.047-0.099,0.087-0.146,0.131l1.368,1.369
		c0.124-0.123,0.247-0.247,0.37-0.37l-1.368-1.369c-0.044,0.047-0.084,0.1-0.132,0.146l-4.043-4.044
		C24.485,24.454,24.454,24.484,24.423,24.515z"/>
	<path fill="#FFFFFF" d="M3.131,11.476c0.024-0.061,0.054-0.118,0.081-0.178l-1.781-0.738c-0.066,0.161-0.133,0.323-0.2,0.484
		l1.787,0.74c0.024-0.061,0.043-0.123,0.067-0.184l5.283,2.188c0.017-0.04,0.031-0.082,0.048-0.123L3.131,11.476z"/>
	<path fill="#FFFFFF" d="M2.607,12.921L0.77,12.365l-0.038,0.124c2.438,0.738,4.877,1.477,7.316,2.215
		c0.012-0.041,0.022-0.083,0.035-0.125L2.607,12.921z"/>
	<path fill="#FFFFFF" d="M22.079,2.606l0.557-1.837l-0.124-0.038c-0.739,2.438-1.478,4.877-2.216,7.315
		c0.042,0.012,0.083,0.023,0.125,0.035L22.079,2.606z"/>
	<path fill="#FFFFFF" d="M20.603,2.231l0.374-1.882L20.85,0.324c-0.497,2.499-0.994,4.998-1.491,7.497
		c0.043,0.008,0.085,0.014,0.128,0.022L20.603,2.231z"/>
	<path fill="#FFFFFF" d="M2.001,15.915L0.09,15.727l-0.013,0.13c2.536,0.249,5.072,0.498,7.608,0.746
		c0.004-0.043,0.006-0.086,0.011-0.129L2.001,15.915z"/>
	<path fill="#FFFFFF" d="M2.232,14.397l-1.884-0.375l-0.024,0.127c2.499,0.497,4.998,0.994,7.497,1.491
		c0.008-0.042,0.014-0.084,0.022-0.126L2.232,14.397z"/>
	<path fill="#FFFFFF" d="M32.421,13.034l1.843-0.56l-0.038-0.124c-2.437,0.741-4.875,1.481-7.312,2.222
		c0.012,0.041,0.023,0.083,0.035,0.125L32.421,13.034z"/>
	<path fill="#FFFFFF" d="M3.085,23.399c-0.024-0.06-0.043-0.123-0.067-0.184l-1.787,0.741c0.067,0.161,0.133,0.322,0.2,0.483
		l1.781-0.737c-0.027-0.061-0.057-0.118-0.081-0.179l5.285-2.189c-0.017-0.04-0.032-0.083-0.048-0.123L3.085,23.399z"/>
	<path fill="#FFFFFF" d="M4.514,26.099l-1.602,1.07l0.073,0.107c2.118-1.416,4.236-2.831,6.354-4.246
		c-0.024-0.036-0.047-0.073-0.071-0.109L4.514,26.099z"/>
	<path fill="#FFFFFF" d="M2.579,21.967l-1.842,0.559l0.038,0.124c2.437-0.739,4.874-1.48,7.31-2.221
		c-0.013-0.041-0.023-0.083-0.035-0.125L2.579,21.967z"/>
	<path fill="#FFFFFF" d="M2.213,20.475L0.324,20.85l0.024,0.127c2.499-0.496,4.997-0.993,7.495-1.49
		c-0.009-0.042-0.015-0.085-0.023-0.127L2.213,20.475z"/>
	<path fill="#FFFFFF" d="M1.996,18.97l-1.917,0.189l0.013,0.129c2.535-0.25,5.07-0.501,7.605-0.752
		c-0.004-0.043-0.007-0.087-0.011-0.13L1.996,18.97z"/>
	<path fill="#FFFFFF" d="M32.787,14.525l1.889-0.375l-0.024-0.126c-2.499,0.496-4.997,0.993-7.495,1.49
		c0.009,0.042,0.015,0.085,0.023,0.127L32.787,14.525z"/>
	<path fill="#FFFFFF" d="M33.004,16.03l1.917-0.188l-0.013-0.129c-2.535,0.25-5.071,0.501-7.606,0.752
		c0.004,0.042,0.007,0.086,0.012,0.129L33.004,16.03z"/>
	<path fill="#FFFFFF" d="M7.645,17.435h-5.72c0.001-0.066,0.01-0.129,0.011-0.195H0c0,0.173,0,0.347,0,0.521h1.935
		c-0.001-0.066-0.009-0.129-0.011-0.195h5.72C7.642,17.521,7.642,17.479,7.645,17.435z"/>
	<path fill="#FFFFFF" d="M24.515,10.577l4.045-4.045c0.046,0.047,0.086,0.099,0.132,0.146l1.367-1.367
		c-0.123-0.124-0.246-0.247-0.37-0.37l-1.366,1.366c0.048,0.046,0.099,0.086,0.146,0.132l-4.045,4.045
		C24.454,10.516,24.484,10.546,24.515,10.577z"/>
	<path fill="#FFFFFF" d="M10.211,3.734L9.303,2.038L9.186,2.1c1.203,2.246,2.404,4.492,3.606,6.738
		c0.038-0.021,0.078-0.04,0.117-0.06L10.211,3.734z"/>
	<path fill="#FFFFFF" d="M10.485,24.423l-4.044,4.044c-0.047-0.046-0.087-0.099-0.132-0.146L4.941,29.69
		c0.124,0.123,0.247,0.246,0.37,0.37l1.368-1.369c-0.047-0.044-0.1-0.084-0.146-0.131l4.044-4.044
		C10.546,24.484,10.516,24.454,10.485,24.423z"/>
	<path fill="#FFFFFF" d="M8.9,4.514L7.831,2.913L7.723,2.985c1.415,2.119,2.831,4.237,4.247,6.355
		c0.036-0.025,0.072-0.047,0.109-0.071L8.9,4.514z"/>
	<path fill="#FFFFFF" d="M11.601,3.083c0.06-0.024,0.123-0.042,0.184-0.067l-0.74-1.785c-0.161,0.067-0.323,0.133-0.484,0.2
		l0.738,1.78c0.059-0.026,0.117-0.055,0.178-0.081l2.189,5.286c0.041-0.017,0.083-0.032,0.123-0.048L11.601,3.083z"/>
	<path fill="#FFFFFF" d="M13.035,2.578l-0.559-1.842l-0.124,0.038c0.74,2.437,1.48,4.874,2.221,7.311
		c0.041-0.013,0.083-0.023,0.125-0.035L13.035,2.578z"/>
	<path fill="#FFFFFF" d="M3.788,10.103L2.093,9.198L2.031,9.314c2.248,1.201,4.495,2.4,6.743,3.601
		c0.021-0.039,0.039-0.078,0.06-0.117L3.788,10.103z"/>
	<path fill="#FFFFFF" d="M31.915,11.601c0.024,0.061,0.043,0.123,0.068,0.184l1.785-0.74l-0.074-0.18l0.001-0.001l-0.051-0.122
		h-0.002l-0.074-0.181l-1.78,0.738c0.027,0.06,0.057,0.117,0.082,0.178l-5.286,2.189c0.017,0.041,0.032,0.083,0.048,0.123
		L31.915,11.601z"/>
	<path fill="#FFFFFF" d="M17.565,7.645V1.923c0.066,0.001,0.13,0.009,0.196,0.011V0c-0.174,0-0.348,0-0.521,0v1.934
		c0.066-0.002,0.13-0.009,0.196-0.011v5.722C17.479,7.642,17.521,7.642,17.565,7.645z"/>
	<path fill="#FFFFFF" d="M10.577,10.485L6.532,6.439C6.579,6.394,6.63,6.354,6.678,6.307L5.311,4.941
		c-0.124,0.123-0.247,0.246-0.37,0.37l1.367,1.367C6.354,6.63,6.394,6.579,6.439,6.531l4.045,4.046
		C10.515,10.546,10.546,10.515,10.577,10.485z"/>
	<path fill="#FFFFFF" d="M19.085,2l0.188-1.91l-0.13-0.013c-0.249,2.536-0.498,5.072-0.747,7.608
		c0.043,0.004,0.087,0.007,0.13,0.011L19.085,2z"/>
	<path fill="#FFFFFF" d="M16.031,1.994l-0.189-1.916l-0.129,0.013c0.251,2.535,0.501,5.07,0.752,7.605
		c0.043-0.005,0.086-0.008,0.129-0.012L16.031,1.994z"/>
	<path fill="#FFFFFF" d="M4.582,8.789L2.986,7.722L2.913,7.831c2.119,1.417,4.237,2.832,6.356,4.248
		c0.024-0.036,0.047-0.073,0.071-0.109L4.582,8.789z"/>
	<path fill="#FFFFFF" d="M14.525,2.211L14.15,0.324l-0.127,0.025c0.497,2.498,0.993,4.996,1.49,7.494
		c0.042-0.008,0.085-0.015,0.127-0.022L14.525,2.211z"/>
	<path fill="#FFFFFF" d="M5.496,7.572L4.009,6.354l-0.084,0.1c1.97,1.617,3.941,3.232,5.912,4.848
		c0.027-0.034,0.054-0.068,0.082-0.101L5.496,7.572z"/>
	<path fill="#FFFFFF" d="M17.435,27.355v5.719c-0.066,0-0.129-0.008-0.196-0.01V35c0.174,0,0.348,0,0.521,0v-1.936
		c-0.066,0.001-0.13,0.01-0.196,0.01v-5.719C17.521,27.358,17.479,27.358,17.435,27.355z"/>
	<path fill="#FFFFFF" d="M32.999,19.085l1.912,0.188l0.013-0.13c-2.537-0.249-5.073-0.498-7.609-0.747
		c-0.004,0.043-0.007,0.087-0.011,0.13L32.999,19.085z"/>
	<path fill="#FFFFFF" d="M7.663,5.423L6.441,3.935l-0.1,0.084c1.617,1.969,3.235,3.938,4.852,5.907
		c0.034-0.028,0.067-0.055,0.101-0.082L7.663,5.423z"/>
	<path fill="#FFFFFF" d="M3.736,24.79l-1.698,0.908L2.1,25.814c2.246-1.202,4.492-2.404,6.738-3.605
		c-0.021-0.039-0.04-0.078-0.06-0.116L3.736,24.79z"/>
	<path fill="#FFFFFF" d="M15.916,32.999l-0.188,1.91l0.13,0.014c0.249-2.536,0.498-5.072,0.746-7.608
		c-0.043-0.004-0.086-0.006-0.129-0.011L15.916,32.999z"/>
	<path fill="#FFFFFF" d="M18.969,33.004l0.189,1.917l0.13-0.013c-0.251-2.535-0.502-5.07-0.752-7.605
		c-0.043,0.004-0.086,0.007-0.129,0.011L18.969,33.004z"/>
	<path fill="#FFFFFF" d="M20.475,32.787l0.375,1.889l0.127-0.024c-0.496-2.499-0.993-4.997-1.49-7.495
		c-0.042,0.008-0.085,0.015-0.128,0.022L20.475,32.787z"/>
	<path fill="#FFFFFF" d="M23.4,31.915c-0.06,0.024-0.124,0.043-0.184,0.068l0.74,1.785c0.161-0.066,0.322-0.133,0.483-0.2
		l-0.737-1.78c-0.059,0.025-0.118,0.055-0.178,0.081l-2.189-5.285c-0.041,0.017-0.083,0.032-0.123,0.049L23.4,31.915z"/>
	<path fill="#FFFFFF" d="M11.478,31.87c-0.061-0.026-0.119-0.056-0.18-0.083l-0.738,1.781l0.484,0.2l0.74-1.786
		c-0.061-0.024-0.123-0.043-0.182-0.068l2.188-5.282c-0.041-0.017-0.083-0.032-0.123-0.048L11.478,31.87z"/>
	<path fill="#FFFFFF" d="M24.791,31.264l0.907,1.697l0.116-0.062c-1.203-2.245-2.404-4.491-3.605-6.737
		c-0.038,0.021-0.077,0.04-0.116,0.06L24.791,31.264z"/>
	<path fill="#FFFFFF" d="M29.577,7.664l1.488-1.224l-0.084-0.1c-1.969,1.618-3.938,3.235-5.907,4.853
		c0.028,0.033,0.055,0.067,0.083,0.101L29.577,7.664z"/>
	<path fill="#FFFFFF" d="M14.397,32.768l-0.374,1.884l0.127,0.024c0.496-2.499,0.993-4.998,1.49-7.497
		c-0.042-0.008-0.085-0.014-0.127-0.022L14.397,32.768z"/>
	<path fill="#FFFFFF" d="M12.923,32.393l-0.557,1.837l0.124,0.038c0.738-2.438,1.477-4.876,2.215-7.315
		c-0.041-0.012-0.083-0.023-0.125-0.036L12.923,32.393z"/>
	<path fill="#FFFFFF" d="M27.429,5.496l1.218-1.486l-0.1-0.084c-1.617,1.97-3.232,3.941-4.849,5.912
		c0.034,0.028,0.069,0.055,0.102,0.083L27.429,5.496z"/>
	<path fill="#FFFFFF" d="M32.393,22.079l1.838,0.557l0.038-0.124c-2.439-0.738-4.877-1.477-7.316-2.216
		c-0.012,0.042-0.022,0.084-0.035,0.125L32.393,22.079z"/>
	<path fill="#FFFFFF" d="M31.869,23.523c-0.025,0.061-0.055,0.118-0.082,0.179l1.781,0.737c0.066-0.161,0.133-0.322,0.2-0.483
		l-1.786-0.741c-0.024,0.062-0.043,0.124-0.068,0.184l-5.283-2.188c-0.016,0.04-0.031,0.083-0.048,0.123L31.869,23.523z"/>
	<path fill="#FFFFFF" d="M31.212,24.896l1.695,0.905l0.062-0.116c-2.248-1.201-4.495-2.4-6.743-3.601
		c-0.021,0.039-0.039,0.079-0.061,0.117L31.212,24.896z"/>
	<path fill="#FFFFFF" d="M32.768,20.603l1.884,0.375l0.024-0.127c-2.499-0.497-4.998-0.994-7.496-1.491
		c-0.008,0.042-0.014,0.084-0.023,0.126L32.768,20.603z"/>
	<path fill="#FFFFFF" d="M30.418,26.209l1.596,1.067l0.073-0.107c-2.119-1.416-4.237-2.832-6.356-4.248
		c-0.024,0.037-0.047,0.073-0.071,0.109L30.418,26.209z"/>
	<path fill="#FFFFFF" d="M26.099,30.486l1.071,1.602l0.108-0.072c-1.415-2.119-2.831-4.237-4.247-6.356
		c-0.037,0.025-0.073,0.048-0.11,0.072L26.099,30.486z"/>
	<path fill="#FFFFFF" d="M27.336,29.578l1.222,1.487l0.1-0.084c-1.617-1.968-3.234-3.937-4.852-5.906
		c-0.033,0.028-0.067,0.055-0.101,0.083L27.336,29.578z"/>
	<path fill="#FFFFFF" d="M29.504,27.428l1.487,1.219l0.084-0.1c-1.971-1.616-3.942-3.232-5.913-4.848
		c-0.027,0.034-0.054,0.068-0.081,0.101L29.504,27.428z"/>
	<path fill="#FFFFFF" d="M21.965,32.421l0.561,1.843l0.125-0.038c-0.74-2.438-1.481-4.875-2.222-7.312
		c-0.041,0.013-0.083,0.022-0.125,0.035L21.965,32.421z"/>
	<path fill="#FFFFFF" d="M7.573,29.504l-1.219,1.486l0.1,0.084c1.617-1.97,3.233-3.941,4.849-5.912
		c-0.034-0.028-0.069-0.055-0.102-0.083L7.573,29.504z"/>
	<path fill="#FFFFFF" d="M26.211,4.582l1.067-1.597L27.17,2.913c-1.416,2.119-2.832,4.238-4.248,6.356
		c0.036,0.024,0.072,0.046,0.108,0.071L26.211,4.582z"/>
	<path fill="#FFFFFF" d="M30.486,8.901l1.601-1.071l-0.073-0.108c-2.118,1.416-4.236,2.831-6.354,4.247
		c0.025,0.036,0.047,0.073,0.072,0.109L30.486,8.901z"/>
	<path fill="#FFFFFF" d="M8.789,30.417l-1.066,1.598l0.108,0.072c1.417-2.119,2.832-4.237,4.248-6.356
		c-0.037-0.024-0.073-0.047-0.109-0.072L8.789,30.417z"/>
	<path fill="#FFFFFF" d="M31.264,10.211l1.699-0.909L32.9,9.186c-2.246,1.202-4.492,2.403-6.738,3.605
		c0.021,0.038,0.04,0.078,0.06,0.116L31.264,10.211z"/>
	<path fill="#FFFFFF" d="M5.424,27.336l-1.49,1.224l0.084,0.1c1.969-1.617,3.938-3.234,5.907-4.852
		c-0.028-0.034-0.055-0.067-0.083-0.102L5.424,27.336z"/>
	<path fill="#FFFFFF" d="M10.104,31.212l-0.905,1.695l0.116,0.062c1.2-2.248,2.4-4.496,3.601-6.744
		c-0.039-0.021-0.079-0.039-0.117-0.06L10.104,31.212z"/>
</g>
</svg>
