<?xml version="1.0" encoding="utf-8"?>
<!-- Generator: Adobe Illustrator 16.0.1, SVG Export Plug-In . SVG Version: 6.00 Build 0)  -->
<!DOCTYPE svg PUBLIC "-//W3C//DTD SVG 1.1//EN" "http://www.w3.org/Graphics/SVG/1.1/DTD/svg11.dtd">
<svg version="1.1" id="Layer_1" xmlns="http://www.w3.org/2000/svg" xmlns:xlink="http://www.w3.org/1999/xlink" x="0px" y="0px"
	 width="37px" height="37px" viewBox="0 0 37 37" enable-background="new 0 0 37 37" xml:space="preserve">
<g>
	<path fill="#FFFFFF" d="M12.845,4.975l1.857,4.484c0.031-0.013,0.061-0.023,0.091-0.036l-1.858-4.486
		c0.076-0.03,0.15-0.063,0.227-0.093l-1.088-2.625l-0.543,0.225l1.087,2.625C12.692,5.037,12.77,5.007,12.845,4.975z"/>
	<path fill="#FFFFFF" d="M7.929,8.345C7.985,8.287,8.044,8.23,8.102,8.172l3.431,3.432c0.023-0.023,0.047-0.047,0.07-0.07
		L8.171,8.103C8.229,8.045,8.286,7.986,8.345,7.93L6.333,5.917L6.16,6.09l0,0l-0.07,0.07h0L5.917,6.333L7.929,8.345z"/>
	<path fill="#FFFFFF" d="M3.838,18.552h4.859c0-0.017-0.001-0.034-0.001-0.052c0-0.016,0.001-0.031,0.001-0.047H3.838
		c0.001-0.082,0.005-0.162,0.007-0.244H1v0.244v0.099v0.245h2.845C3.844,18.715,3.84,18.633,3.838,18.552z"/>
	<path fill="#FFFFFF" d="M31.932,12.621c0.033,0.074,0.062,0.151,0.094,0.226l-4.484,1.857c0.012,0.029,0.023,0.061,0.037,0.091
		l4.484-1.858c0.031,0.076,0.064,0.15,0.094,0.227l2.623-1.087l-0.094-0.226l0,0l-0.037-0.091l0,0l-0.092-0.226L31.932,12.621z"/>
	<path fill="#FFFFFF" d="M28.656,7.931c0.059,0.057,0.115,0.116,0.172,0.173l-3.43,3.431c0.021,0.023,0.045,0.046,0.068,0.07
		l3.432-3.432c0.059,0.058,0.117,0.114,0.172,0.173l2.014-2.011L30.91,6.162l0,0l-0.07-0.069l0,0l-0.174-0.173L28.656,7.931z"/>
	<path fill="#FFFFFF" d="M4.844,13.163c0.03-0.076,0.063-0.151,0.094-0.227l4.485,1.858c0.013-0.03,0.024-0.061,0.037-0.092
		l-4.484-1.857c0.031-0.075,0.061-0.152,0.093-0.227l-2.626-1.087l-0.094,0.226l0,0l-0.028,0.069l-0.104,0.249L4.844,13.163z"/>
	<path fill="#FFFFFF" d="M24.154,32.023l-1.857-4.484c-0.029,0.014-0.061,0.023-0.092,0.037l1.859,4.486
		c-0.076,0.029-0.15,0.062-0.227,0.092l1.086,2.625l0.543-0.225l-1.086-2.625C24.307,31.963,24.23,31.994,24.154,32.023z"/>
	<path fill="#FFFFFF" d="M32.154,23.838c-0.029,0.076-0.062,0.15-0.094,0.227l-4.484-1.859c-0.014,0.031-0.023,0.062-0.037,0.092
		l4.484,1.859c-0.031,0.074-0.061,0.15-0.094,0.227l2.623,1.086l0.094-0.227l0,0l0.037-0.09l0.094-0.229L32.154,23.838z"/>
	<path fill="#FFFFFF" d="M29.07,28.656c-0.057,0.059-0.117,0.113-0.174,0.172l-3.432-3.432c-0.023,0.023-0.045,0.047-0.07,0.07
		l3.432,3.432c-0.057,0.059-0.113,0.115-0.174,0.172l2.012,2.012l0.174-0.174l0.07-0.068l0,0l0.172-0.174L29.07,28.656z"/>
	<path fill="#FFFFFF" d="M5.069,24.383c-0.033-0.072-0.062-0.15-0.094-0.227l4.484-1.855c-0.013-0.031-0.023-0.062-0.036-0.094
		l-4.486,1.859c-0.031-0.076-0.063-0.15-0.093-0.227l-2.625,1.086l0.094,0.229l0,0l0.038,0.09l0,0l0.093,0.227L5.069,24.383z"/>
	<path fill="#FFFFFF" d="M33.154,18.209c0,0.082,0.004,0.162,0.006,0.244h-4.859c0,0.016,0.002,0.031,0.002,0.047
		c0,0.018-0.002,0.035-0.002,0.052h4.859c-0.002,0.081-0.006,0.163-0.006,0.245H36v-0.245v-0.099v-0.244H33.154z"/>
	<path fill="#FFFFFF" d="M8.346,29.072c-0.059-0.057-0.115-0.115-0.173-0.174l3.431-3.432c-0.023-0.023-0.046-0.047-0.07-0.068
		l-3.431,3.43c-0.058-0.057-0.116-0.113-0.172-0.172l-2.012,2.012l0.208,0.207l0.035,0.035l0,0l0.173,0.174L8.346,29.072z"/>
	<path fill="#FFFFFF" d="M13.641,9.986l-3.85-6.667L9.706,3.369l3.85,6.667C13.583,10.019,13.612,10.003,13.641,9.986z"/>
	<path fill="#FFFFFF" d="M12.571,10.693L7.885,4.586l-0.078,0.06l4.688,6.108C12.52,10.734,12.544,10.713,12.571,10.693z"/>
	<path fill="#FFFFFF" d="M28.225,17.272l7.633-1.005l-0.016-0.097l-7.629,1.004C28.217,17.207,28.221,17.239,28.225,17.272z"/>
	<path fill="#FFFFFF" d="M17.269,8.776l-1.004-7.632l-0.097,0.012l1.005,7.632C17.203,8.784,17.236,8.78,17.269,8.776z"/>
	<path fill="#FFFFFF" d="M10.753,12.495L4.645,7.808l-0.06,0.077l6.108,4.688C10.712,12.546,10.733,12.521,10.753,12.495z"/>
	<path fill="#FFFFFF" d="M9.043,15.916l-7.436-1.993l-0.026,0.094l7.435,1.992C9.025,15.979,9.035,15.947,9.043,15.916z"/>
	<path fill="#FFFFFF" d="M8.788,17.172l-7.634-1.005l-0.013,0.097l7.635,1.005C8.78,17.236,8.784,17.205,8.788,17.172z"/>
	<path fill="#FFFFFF" d="M10.035,13.557l-6.668-3.85L3.318,9.792l6.668,3.849C10.002,13.614,10.018,13.585,10.035,13.557z"/>
	<path fill="#FFFFFF" d="M16.009,9.017l-1.992-7.433l-0.095,0.026l1.993,7.434C15.946,9.035,15.978,9.025,16.009,9.017z"/>
	<path fill="#FFFFFF" d="M27.014,13.643l6.666-3.849l-0.049-0.085l-6.666,3.849C26.982,13.586,26.998,13.615,27.014,13.643z"/>
	<path fill="#FFFFFF" d="M26.307,12.573l6.107-4.685l-0.061-0.079l-6.107,4.687C26.266,12.521,26.287,12.547,26.307,12.573z"/>
	<path fill="#FFFFFF" d="M27.982,16.012l7.434-1.992l-0.025-0.095l-7.434,1.991C27.965,15.949,27.975,15.98,27.982,16.012z"/>
	<path fill="#FFFFFF" d="M24.506,10.755l4.688-6.107l-0.078-0.06l-4.686,6.106C24.455,10.714,24.48,10.735,24.506,10.755z"/>
	<path fill="#FFFFFF" d="M19.73,8.776c0.033,0.004,0.064,0.008,0.098,0.013l1.006-7.632l-0.1-0.012L19.73,8.776z"/>
	<path fill="#FFFFFF" d="M23.443,10.036l3.85-6.667l-0.084-0.048l-3.85,6.666C23.387,10.003,23.416,10.02,23.443,10.036z"/>
	<path fill="#FFFFFF" d="M22.205,9.424c0.031,0.012,0.062,0.023,0.094,0.036l1.855-4.484c0.076,0.032,0.152,0.062,0.227,0.094
		l1.088-2.624l-0.543-0.225l-1.088,2.624c0.076,0.03,0.15,0.063,0.227,0.093L22.205,9.424z"/>
	<path fill="#FFFFFF" d="M18.449,8.697c0.018,0,0.033-0.001,0.05-0.001s0.033,0.001,0.049,0.001V3.839
		c0.083,0.001,0.164,0.005,0.245,0.006V1h-0.245h-0.099h-0.244v2.846c0.082-0.001,0.163-0.005,0.244-0.006V8.697z"/>
	<path fill="#FFFFFF" d="M23.076,1.61l-0.094-0.026L20.99,9.017c0.031,0.008,0.064,0.018,0.094,0.027L23.076,1.61z"/>
	<path fill="#FFFFFF" d="M24.428,26.305l4.686,6.109l0.078-0.061l-4.686-6.107C24.479,26.266,24.455,26.287,24.428,26.305z"/>
	<path fill="#FFFFFF" d="M26.246,24.506l6.105,4.686l0.059-0.076l-6.105-4.686C26.285,24.455,26.264,24.479,26.246,24.506z"/>
	<path fill="#FFFFFF" d="M23.357,27.014l3.85,6.666l0.084-0.049l-3.848-6.666C23.416,26.98,23.387,26.996,23.357,27.014z"/>
	<path fill="#FFFFFF" d="M20.99,27.984l1.99,7.432l0.096-0.025l-1.992-7.434C21.051,27.965,21.021,27.975,20.99,27.984z"/>
	<path fill="#FFFFFF" d="M28.213,19.828l7.627,1.004l0.016-0.096l-7.633-1.004C28.221,19.764,28.215,19.795,28.213,19.828z"/>
	<path fill="#FFFFFF" d="M19.73,28.223l1.004,7.633l0.1-0.014l-1.006-7.629C19.795,28.215,19.764,28.219,19.73,28.223z"/>
	<path fill="#FFFFFF" d="M27.957,21.084l7.432,1.992l0.025-0.094l-7.432-1.992C27.975,21.023,27.965,21.055,27.957,21.084z"/>
	<path fill="#FFFFFF" d="M26.965,23.445l6.664,3.848l0.049-0.086l-6.666-3.848C26.998,23.387,26.982,23.416,26.965,23.445z"/>
	<path fill="#FFFFFF" d="M14.794,27.576c-0.03-0.014-0.062-0.023-0.091-0.037l-1.857,4.486c-0.075-0.031-0.152-0.062-0.227-0.094
		l-1.087,2.625l0.226,0.092l0,0l0.09,0.039v-0.002l0.227,0.094l1.088-2.623c-0.076-0.031-0.151-0.062-0.227-0.094L14.794,27.576z"/>
	<path fill="#FFFFFF" d="M9.987,23.359l-6.666,3.85l0.048,0.086l6.667-3.85C10.02,23.418,10.003,23.387,9.987,23.359z"/>
	<path fill="#FFFFFF" d="M10.694,24.43l-6.107,4.688l0.06,0.076l6.108-4.688C10.734,24.48,10.714,24.455,10.694,24.43z"/>
	<path fill="#FFFFFF" d="M18.549,28.301c-0.017,0-0.033,0.002-0.05,0.002s-0.032-0.002-0.048-0.002v4.859
		c-0.082-0.002-0.163-0.004-0.245-0.006v2.844h0.245h0.098h0.245v-2.844c-0.082,0.002-0.163,0.004-0.245,0.006V28.301z"/>
	<path fill="#FFFFFF" d="M9.017,20.992l-7.433,1.992l0.025,0.096l7.435-1.994C9.035,21.057,9.026,21.023,9.017,20.992z"/>
	<path fill="#FFFFFF" d="M13.923,35.391l0.095,0.025l1.991-7.432c-0.031-0.01-0.062-0.02-0.095-0.027L13.923,35.391z"/>
	<path fill="#FFFFFF" d="M16.167,35.842l0.097,0.016l1.005-7.635c-0.033-0.002-0.064-0.006-0.097-0.01L16.167,35.842z"/>
	<path fill="#FFFFFF" d="M13.557,26.965l-3.849,6.666l0.085,0.049l3.849-6.666C13.614,26.998,13.585,26.982,13.557,26.965z"/>
	<path fill="#FFFFFF" d="M8.776,19.732l-7.633,1.006l0.013,0.096l7.633-1.002C8.785,19.799,8.78,19.766,8.776,19.732z"/>
	<path fill="#FFFFFF" d="M12.496,26.246l-4.688,6.109l0.079,0.059l4.686-6.107C12.547,26.287,12.521,26.266,12.496,26.246z"/>
</g>
</svg>
