<?xml version="1.0" encoding="utf-8"?>
<!-- Generator: Adobe Illustrator 16.0.1, SVG Export Plug-In . SVG Version: 6.00 Build 0)  -->
<!DOCTYPE svg PUBLIC "-//W3C//DTD SVG 1.1//EN" "http://www.w3.org/Graphics/SVG/1.1/DTD/svg11.dtd">
<svg version="1.1" id="Layer_1" xmlns="http://www.w3.org/2000/svg" xmlns:xlink="http://www.w3.org/1999/xlink" x="0px" y="0px"
	 width="100px" height="65.367px" viewBox="0 0 100 65.367" enable-background="new 0 0 100 65.367" xml:space="preserve">
<g>
	<polygon fill="#6C3FC2" points="6.747,26.216 4.126,25.26 4.126,44.4 2.815,44.4 2.815,65.37 8.059,65.37 8.059,44.4 6.747,44.4 	
		"/>
	<path fill="#6C3FC2" d="M29.667,53.834c6.724,3.734,13.682,7.603,20.33,7.603s13.603-3.868,20.331-7.603
		c3.176-1.766,6.455-3.585,9.722-5.019L78.428,33L49.997,43.339L21.713,33.053l-1.759,15.764
		C23.218,50.252,26.492,52.071,29.667,53.834z"/>
	<polygon fill="#6C3FC2" points="100,18.185 50,0 0,18.185 50,36.364 	"/>
</g>
</svg>
