<?xml version="1.0" encoding="utf-8"?>
<!-- Generator: Adobe Illustrator 16.0.1, SVG Export Plug-In . SVG Version: 6.00 Build 0)  -->
<!DOCTYPE svg PUBLIC "-//W3C//DTD SVG 1.1//EN" "http://www.w3.org/Graphics/SVG/1.1/DTD/svg11.dtd">
<svg version="1.1" id="Layer_1" xmlns="http://www.w3.org/2000/svg" xmlns:xlink="http://www.w3.org/1999/xlink" x="0px" y="0px"
	 width="38.148px" height="24.937px" viewBox="0 0 38.148 24.937" enable-background="new 0 0 38.148 24.937" xml:space="preserve">
<polygon fill="#6C3FC2" points="2.574,10.001 1.574,9.637 1.574,16.937 1.074,16.937 1.074,24.937 3.074,24.937 3.074,16.937 
	2.574,16.937 "/>
<path fill="#6C3FC2" d="M11.317,20.537c2.566,1.425,5.22,2.899,7.756,2.899c2.536,0,5.189-1.474,7.756-2.899
	c1.212-0.674,2.463-1.368,3.709-1.915l-0.619-6.033l-10.846,3.944L8.283,12.609l-0.671,6.014
	C8.857,19.17,10.106,19.864,11.317,20.537z"/>
<polygon fill="#6C3FC2" points="38.148,6.937 19.074,0 0,6.937 19.074,13.872 "/>
</svg>
