<?xml version="1.0" encoding="utf-8"?>
<!-- Generator: Adobe Illustrator 16.0.1, SVG Export Plug-In . SVG Version: 6.00 Build 0)  -->
<!DOCTYPE svg PUBLIC "-//W3C//DTD SVG 1.1//EN" "http://www.w3.org/Graphics/SVG/1.1/DTD/svg11.dtd">
<svg version="1.1" id="Layer_1" xmlns="http://www.w3.org/2000/svg" xmlns:xlink="http://www.w3.org/1999/xlink" x="0px" y="0px"
	 width="100px" height="65.367px" viewBox="0 0 100 65.367" enable-background="new 0 0 100 65.367" xml:space="preserve">
<path fill="#A2359D" d="M74.986,0C66.66,0,58.323,5.703,50,8.563C41.803,5.748,33.956,0,25.011,0C16.055,0,8.206,5.757,0,8.571V60
	c8.206-2.807,16.058-8.574,25.011-8.574c8.938,0,16.78,5.742,24.967,8.558V60c0.009-0.003,0.014-0.006,0.022-0.009
	c0.009,0.003,0.014,0.006,0.022,0.009v-0.017c8.187-2.815,16.026-8.558,24.964-8.558c8.956,0,16.808,5.762,25.014,8.574V8.571
	C91.663,5.714,83.32,0,74.986,0z M9.515,21.146c5.685-1.914,11.077-5.834,17.36-4.932c3.011,0.436,5.821,1.712,8.577,2.94
	c0.854,0.38,8.64,3.032,4.971,4.646c-1.889,0.832-6.309-2.14-8.068-2.895c-2.94-1.257-6.029-2.356-9.269-1.829
	c-3.012,0.495-5.804,1.911-8.569,3.135c-1.223,0.54-3.471,1.979-4.849,1.687C8.286,23.6,8.171,21.595,9.515,21.146
	C11.109,20.608,8.771,21.396,9.515,21.146z M41.202,37.949c-0.822,2.458-5.597-0.6-6.896-1.181c-2.7-1.205-5.5-2.544-8.485-2.804
	c-2.914-0.251-5.731,0.817-8.361,1.944c-1.494,0.643-7.982,4.638-8.839,2.04c-0.714-2.132,5.254-3.574,6.674-4.205
	c3.035-1.342,6.24-2.673,9.617-2.673c3.032,0,5.938,1.083,8.683,2.266C35.111,33.99,41.917,35.792,41.202,37.949
	C41.003,38.546,41.451,37.204,41.202,37.949z M41.202,30.446c-0.822,2.455-5.605-0.606-6.905-1.183
	c-2.696-1.203-5.497-2.544-8.479-2.802c-2.914-0.251-5.729,0.817-8.355,1.946c-1.494,0.644-7.985,4.639-8.842,2.041
	c-0.714-2.135,5.254-3.571,6.674-4.2c3.035-1.344,6.238-2.678,9.614-2.678c3.031,0,5.935,1.083,8.677,2.266
	C35.101,26.488,41.917,28.298,41.202,30.446C41.003,31.044,41.451,29.703,41.202,30.446z M91.181,37.949
	c-0.829,2.458-5.601-0.597-6.903-1.181c-2.698-1.205-5.499-2.544-8.485-2.804c-2.915-0.251-5.73,0.817-8.359,1.944
	c-1.489,0.64-8.002,4.638-8.845,2.04c-0.726-2.126,5.254-3.577,6.669-4.205c3.035-1.342,6.244-2.673,9.62-2.673
	c3.03,0,5.935,1.083,8.681,2.266C85.072,33.99,91.889,35.801,91.181,37.949C90.979,38.546,91.426,37.204,91.181,37.949z
	 M91.181,30.446c-0.829,2.455-5.605-0.604-6.906-1.183c-2.698-1.203-5.496-2.544-8.482-2.802c-2.915-0.251-5.73,0.817-8.359,1.946
	c-1.486,0.638-8.002,4.639-8.845,2.041c-0.723-2.126,5.254-3.574,6.675-4.2c3.035-1.344,6.238-2.678,9.614-2.678
	c3.03,0,5.933,1.083,8.678,2.266C85.072,26.488,91.889,28.298,91.181,30.446C90.979,31.044,91.426,29.703,91.181,30.446z
	 M91.181,22.949c-0.829,2.46-5.608-0.603-6.909-1.186c-2.698-1.203-5.499-2.544-8.479-2.802c-2.915-0.251-5.725,0.814-8.354,1.943
	c-1.49,0.641-8.002,4.641-8.851,2.041c-0.711-2.135,5.257-3.577,6.683-4.206c3.036-1.344,6.236-2.672,9.612-2.672
	c3.03,0,5.932,1.08,8.675,2.263C85.078,18.988,91.889,20.791,91.181,22.949C90.979,23.544,91.426,22.203,91.181,22.949z"/>
</svg>
