<?xml version="1.0" encoding="utf-8"?>
<!-- Generator: Adobe Illustrator 16.0.1, SVG Export Plug-In . SVG Version: 6.00 Build 0)  -->
<!DOCTYPE svg PUBLIC "-//W3C//DTD SVG 1.1//EN" "http://www.w3.org/Graphics/SVG/1.1/DTD/svg11.dtd">
<svg version="1.1" id="Layer_1" xmlns="http://www.w3.org/2000/svg" xmlns:xlink="http://www.w3.org/1999/xlink" x="0px" y="0px"
	 width="38.148px" height="24.937px" viewBox="0 0 38.148 24.937" enable-background="new 0 0 38.148 24.937" xml:space="preserve">
<path fill="#A2359D" d="M10.282,1.952c-2.933,0-5.867,2.003-8.8,3.005v18.028c2.933-1.001,5.867-3.006,8.8-3.006
	c2.932,0,5.866,2.004,8.8,3.006V4.957C16.148,3.955,13.214,1.952,10.282,1.952z M4.83,9.365c0.561-0.188,1.144-0.446,1.707-0.697
	c1.197-0.532,2.435-1.082,3.709-1.082s2.513,0.55,3.709,1.082c0.563,0.25,1.146,0.509,1.707,0.697
	c0.262,0.087,0.403,0.37,0.316,0.632c-0.07,0.209-0.265,0.342-0.474,0.342c-0.052,0-0.105-0.008-0.158-0.026
	c-0.607-0.202-1.212-0.471-1.797-0.731c-1.152-0.512-2.24-0.996-3.303-0.996S8.095,9.07,6.943,9.582
	c-0.585,0.26-1.19,0.529-1.797,0.731c-0.265,0.089-0.545-0.055-0.632-0.316C4.426,9.735,4.568,9.452,4.83,9.365z M15.979,15.256
	c-0.07,0.209-0.265,0.342-0.474,0.342c-0.052,0-0.106-0.008-0.158-0.026c-0.606-0.202-1.21-0.471-1.794-0.73
	c-1.153-0.513-2.242-0.997-3.306-0.997s-2.153,0.484-3.306,0.997c-0.584,0.26-1.188,0.528-1.794,0.73
	c-0.262,0.089-0.545-0.054-0.632-0.316c-0.087-0.262,0.054-0.545,0.316-0.632c0.56-0.188,1.142-0.446,1.705-0.696
	c1.198-0.533,2.436-1.083,3.712-1.083s2.514,0.55,3.712,1.083c0.562,0.25,1.145,0.508,1.705,0.696
	C15.925,14.711,16.066,14.994,15.979,15.256z M15.979,12.626c-0.07,0.209-0.265,0.342-0.474,0.342c-0.052,0-0.106-0.008-0.158-0.026
	c-0.606-0.202-1.211-0.471-1.796-0.731c-1.152-0.512-2.241-0.996-3.304-0.996s-2.152,0.484-3.304,0.996
	c-0.584,0.26-1.189,0.529-1.796,0.731c-0.262,0.089-0.545-0.054-0.632-0.316c-0.087-0.262,0.054-0.545,0.316-0.632
	c0.561-0.188,1.143-0.446,1.706-0.696c1.197-0.532,2.435-1.083,3.71-1.083s2.513,0.55,3.71,1.083
	c0.563,0.25,1.145,0.509,1.706,0.696C15.925,12.082,16.066,12.365,15.979,12.626z"/>
<path fill="#A2359D" d="M27.865,1.952c-2.933,0-5.867,2.003-8.799,3.005v18.028c2.932-1.001,5.866-3.006,8.799-3.006
	s5.867,2.004,8.801,3.006V4.957C33.732,3.955,30.798,1.952,27.865,1.952z M22.413,9.365c0.562-0.188,1.144-0.446,1.707-0.697
	c1.196-0.532,2.435-1.082,3.71-1.082c1.274,0,2.512,0.55,3.709,1.082c0.562,0.25,1.146,0.509,1.707,0.697
	c0.262,0.087,0.403,0.37,0.316,0.632c-0.07,0.209-0.266,0.342-0.475,0.342c-0.053,0-0.105-0.008-0.158-0.026
	c-0.607-0.202-1.212-0.471-1.797-0.731c-1.152-0.512-2.24-0.996-3.303-0.996c-1.063,0-2.151,0.483-3.304,0.996
	c-0.585,0.26-1.19,0.529-1.797,0.731c-0.265,0.089-0.546-0.055-0.632-0.316C22.01,9.735,22.151,9.452,22.413,9.365z M33.562,15.256
	c-0.07,0.209-0.266,0.342-0.475,0.342c-0.053,0-0.105-0.008-0.158-0.026c-0.605-0.202-1.211-0.471-1.795-0.73
	c-1.152-0.513-2.242-0.997-3.305-0.997c-1.064,0-2.153,0.484-3.307,0.997c-0.584,0.26-1.188,0.528-1.794,0.73
	c-0.263,0.089-0.546-0.054-0.632-0.316c-0.088-0.262,0.053-0.545,0.315-0.632c0.56-0.188,1.142-0.446,1.704-0.696
	c1.198-0.533,2.437-1.083,3.713-1.083c1.275,0,2.514,0.55,3.711,1.083c0.562,0.25,1.145,0.508,1.705,0.696
	C33.508,14.711,33.649,14.994,33.562,15.256z M33.562,12.626c-0.07,0.209-0.266,0.342-0.475,0.342c-0.053,0-0.105-0.008-0.158-0.026
	c-0.606-0.202-1.211-0.471-1.796-0.731c-1.152-0.512-2.241-0.996-3.304-0.996c-1.063,0-2.152,0.484-3.305,0.996
	c-0.584,0.26-1.189,0.529-1.796,0.731c-0.263,0.089-0.546-0.054-0.632-0.316c-0.088-0.262,0.053-0.545,0.315-0.632
	c0.562-0.188,1.144-0.446,1.706-0.696c1.197-0.532,2.436-1.083,3.711-1.083s2.513,0.55,3.71,1.083
	c0.563,0.25,1.146,0.509,1.706,0.696C33.508,12.082,33.649,12.365,33.562,12.626z"/>
</svg>
