<?xml version="1.0" encoding="utf-8"?>
<!-- Generator: Adobe Illustrator 16.0.1, SVG Export Plug-In . SVG Version: 6.00 Build 0)  -->
<!DOCTYPE svg PUBLIC "-//W3C//DTD SVG 1.1//EN" "http://www.w3.org/Graphics/SVG/1.1/DTD/svg11.dtd">
<svg version="1.1" id="Layer_1" xmlns="http://www.w3.org/2000/svg" xmlns:xlink="http://www.w3.org/1999/xlink" x="0px" y="0px"
	 width="35px" height="21px" viewBox="0 0 35 21" enable-background="new 0 0 35 21" xml:space="preserve">
<path fill="#A2359D" d="M26.245,0c-2.914,0-5.832,1.996-8.745,2.997C14.631,2.012,11.885,0,8.754,0C5.619,0,2.872,2.015,0,3v18
	c2.872-0.983,5.62-3.001,8.754-3.001c3.128,0,5.873,2.01,8.738,2.995V21c0.003-0.001,0.005-0.002,0.008-0.003
	c0.003,0.001,0.005,0.002,0.008,0.003v-0.006c2.865-0.985,5.609-2.995,8.737-2.995c3.135,0,5.883,2.017,8.755,3.001V3
	C32.082,2,29.162,0,26.245,0z M3.33,7.401c1.99-0.67,3.877-2.042,6.076-1.726c1.054,0.152,2.038,0.599,3.002,1.029
	c0.299,0.133,3.024,1.061,1.74,1.626c-0.661,0.291-2.208-0.749-2.824-1.013C10.295,6.877,9.214,6.492,8.08,6.677
	C7.026,6.85,6.049,7.346,5.081,7.774c-0.428,0.189-1.215,0.693-1.697,0.59C2.9,8.26,2.86,7.558,3.33,7.401
	C3.888,7.213,3.07,7.488,3.33,7.401z M14.421,13.282c-0.288,0.861-1.959-0.21-2.414-0.413c-0.945-0.422-1.925-0.891-2.97-0.981
	c-1.02-0.088-2.006,0.286-2.926,0.681c-0.523,0.224-2.794,1.623-3.094,0.713c-0.25-0.746,1.839-1.251,2.336-1.471
	c1.062-0.47,2.184-0.936,3.366-0.936c1.061,0,2.078,0.379,3.039,0.793C12.289,11.897,14.671,12.528,14.421,13.282
	C14.351,13.491,14.508,13.021,14.421,13.282z M14.421,10.656c-0.288,0.86-1.962-0.212-2.417-0.414
	c-0.944-0.421-1.924-0.89-2.968-0.98c-1.02-0.088-2.005,0.286-2.924,0.681c-0.523,0.225-2.795,1.623-3.095,0.714
	c-0.25-0.747,1.839-1.25,2.336-1.47c1.062-0.47,2.183-0.937,3.365-0.937c1.061,0,2.077,0.379,3.037,0.793
	C12.285,9.271,14.671,9.904,14.421,10.656C14.351,10.865,14.508,10.396,14.421,10.656z M31.913,13.282
	c-0.29,0.861-1.96-0.209-2.416-0.413c-0.944-0.422-1.925-0.891-2.97-0.981c-1.02-0.088-2.006,0.286-2.926,0.681
	c-0.521,0.223-2.8,1.623-3.095,0.713c-0.254-0.744,1.839-1.252,2.334-1.471c1.063-0.47,2.185-0.936,3.367-0.936
	c1.061,0,2.077,0.379,3.038,0.793C29.776,11.897,32.161,12.53,31.913,13.282C31.843,13.491,31.999,13.021,31.913,13.282z
	 M31.913,10.656c-0.29,0.86-1.962-0.211-2.417-0.414c-0.944-0.421-1.924-0.89-2.969-0.98c-1.02-0.088-2.005,0.286-2.925,0.681
	c-0.521,0.223-2.801,1.624-3.096,0.714c-0.253-0.744,1.839-1.251,2.336-1.47c1.062-0.47,2.184-0.937,3.365-0.937
	c1.061,0,2.076,0.379,3.037,0.793C29.775,9.271,32.161,9.904,31.913,10.656C31.843,10.865,31.999,10.396,31.913,10.656z
	 M31.913,8.032c-0.29,0.861-1.963-0.211-2.418-0.415c-0.944-0.421-1.924-0.89-2.968-0.98c-1.02-0.088-2.004,0.285-2.924,0.68
	c-0.521,0.224-2.8,1.624-3.097,0.714c-0.249-0.747,1.84-1.252,2.339-1.472c1.062-0.47,2.183-0.935,3.364-0.935
	c1.06,0,2.076,0.378,3.036,0.792C29.777,6.646,32.161,7.277,31.913,8.032C31.843,8.24,31.999,7.771,31.913,8.032z"/>
</svg>
